<?xml version="1.0" encoding="utf-8"?>
<!-- Generator: Adobe Illustrator 23.0.5, SVG Export Plug-In . SVG Version: 6.00 Build 0)  -->
<svg version="1.1" id="Layer_1" xmlns="http://www.w3.org/2000/svg" xmlns:xlink="http://www.w3.org/1999/xlink" x="0px" y="0px"
	 viewBox="0 0 49 40.5" style="enable-background:new 0 0 49 40.5;" xml:space="preserve">
<style type="text/css">
	.st0{fill:#FFFFFF;}
</style>
<path class="st0" d="M10.5,14.8c-1.5,0.5-1.5,2.9-0.1,3.5c1.2,0.6,2.8-0.3,2.7-1.7C13.2,15.3,11.7,14.3,10.5,14.8z"/>
<path class="st0" d="M27.7,14.8c-1.5,0.4-1.7,2.8-0.3,3.5c1.2,0.7,2.9-0.2,2.8-1.7C30.4,15.4,28.9,14.3,27.7,14.8z"/>
<path class="st0" d="M39,14.7c-1.5,0.5-1.6,2.8-0.2,3.5c1.2,0.7,2.9-0.2,2.8-1.6C41.8,15.3,40.3,14.2,39,14.7z"/>
<path class="st0" d="M48.6,6.8c-1.2-3.9-5-6.8-9-6.8c-10,0-20.1,0-30.1,0C4.6,0,0.2,4.2,0,9c0,5.1,0,10.2,0,15.3
	c0.1,4.7,4.2,8.9,8.9,9.1c3.9,0.1,7.8,0,11.7,0.1c0.9,1.9,1.9,3.8,2.8,5.7c0.3,0.5,0.4,1.1,1,1.2c0.6-0.1,0.8-0.7,1.1-1.2
	c0.9-1.9,1.9-3.8,2.8-5.8c3.9,0,7.8,0,11.7,0c4.7-0.3,8.8-4.4,8.9-9.1c0-4.1,0-8.1,0-12.2C48.9,10.4,49.1,8.5,48.6,6.8z M14.5,20.3
	c-1.4,1.2-3.9,1.3-5.1-0.2c0,0.2,0,0.7,0,0.9c-1,0-2,0-3,0c0-4.2,0-8.4,0.1-12.5c1,0,1.9,0,2.9,0c0,1.6,0,3.1,0,4.7
	c1.4-1.4,3.9-1.4,5.3,0C16.7,15,16.6,18.5,14.5,20.3z M21.4,20.9c-1,0-1.9,0-2.9,0c0-2.7,0.1-5.3-0.1-8c0-0.9-0.5-1.8-1.3-2
	c0-1,0-1.9,0-2.9c0.9,0,1.8,0.2,2.5,0.8c1.3,0.9,1.8,2.6,1.8,4.1C21.4,15.6,21.4,18.3,21.4,20.9z M31.7,20.2c-2.5,1.9-6.8,1.3-8-1.8
	c-1-2.4,0.4-5.5,3-6.1c1.8-0.5,4-0.2,5.4,1.1C33.9,15.1,33.8,18.6,31.7,20.2z M44.5,20.6c0,1.5-0.5,3.1-1.8,4
	c-1.1,0.8-2.5,0.9-3.8,0.9c0-0.9,0-1.8,0-2.7c0.7,0,1.5,0,2-0.5c0.6-0.6,0.6-1.5,0.7-2.3c-1.5,1.4-3.9,1.4-5.4,0
	c-2-1.9-1.7-5.7,0.6-7.3c1.4-1,3.6-1,4.8,0.4c0-0.2,0-0.6,0-0.8c1,0,2,0,2.9,0C44.5,15.1,44.5,17.9,44.5,20.6z"/>
</svg>
