<?xml version="1.0" encoding="utf-8"?>
<!-- Generator: Adobe Illustrator 23.0.5, SVG Export Plug-In . SVG Version: 6.00 Build 0)  -->
<svg version="1.1" id="Layer_1" xmlns="http://www.w3.org/2000/svg" xmlns:xlink="http://www.w3.org/1999/xlink" x="0px" y="0px"
	 viewBox="0 0 32.3 26.1" style="enable-background:new 0 0 32.3 26.1;" xml:space="preserve">
  <style type="text/css">
    .st0{fill:#333;}
  </style>
  <path
      d="M651.17,504.7h-4.55V503a.75.75,0,1,0-1.5,0v1.7h-8.45V503a.75.75,0,0,0-1.5,0v1.7h-4.79a.75.75,0,0,0-.75.75v3.91a.75.75,0,0,0,.75.75h20.79a.74.74,0,0,0,.75-.75v-3.91A.74.74,0,0,0,651.17,504.7Zm-.75,3.91H631.13V506.2h4v.61a.75.75,0,1,0,1.5,0v-.61h8.45v.61a.75.75,0,1,0,1.5,0v-.61h3.8Z"
      transform="translate(-629.63 -502.25)"
      class="st0" 
            />
  <path
      d="M644.51,522.11H630.77a.74.74,0,0,1-.75-.75v-9.62a.75.75,0,0,1,1.5,0v8.87h13a.75.75,0,0,1,0,1.5Z"
      transform="translate(-629.63 -502.25)"
      class="st0" 
            />
  <path
      d="M651,522.11h-3.48a.75.75,0,0,1,0-1.5h2.73v-8.87a.75.75,0,0,1,1.5,0v9.62A.75.75,0,0,1,651,522.11Z"
      transform="translate(-629.63 -502.25)"
      class="st0" 
            />
  <rect
      x="4.36"
      y="10.75"
      width="1.93"
      height="1.93"
      class="st0" 
            />
  <rect
      x="8.32"
      y="10.75"
      width="1.93"
      height="1.93"
      class="st0" 
            />
  <rect
      x="12.35"
      y="10.75"
      width="1.93"
      height="1.93"
      class="st0" 
            />
  <rect
      x="16.38"
      y="10.75"
      width="1.93"
      height="1.93"
      class="st0" 
            />
  <rect
      x="4.36"
      y="14.7"
      width="1.93"
      height="1.93"
      class="st0" 
            />
  <rect
      x="8.32"
      y="14.7"
      width="1.93"
      height="1.93"
      class="st0" 
            />
  <rect
      x="12.35"
      y="14.7"
      width="1.93"
      height="1.93"
      class="st0" 
            />
  <rect
      x="16.38"
      y="14.7"
      width="1.93"
      height="1.93"
      class="st0" 
            />
</svg>
