<?xml version="1.0" encoding="utf-8"?>
<!-- Generator: Adobe Illustrator 23.0.5, SVG Export Plug-In . SVG Version: 6.00 Build 0)  -->
<svg version="1.1" id="Layer_1" xmlns="http://www.w3.org/2000/svg" xmlns:xlink="http://www.w3.org/1999/xlink" x="0px" y="0px"
	 viewBox="0 0 40.5 29.5" style="enable-background:new 0 0 40.5 29.5;" xml:space="preserve">
<style type="text/css">
	.st0{fill:#ffffff;}
</style>
<g>
	<path class="st0" d="M39.3,22.1c0,1.2-0.4,2.2-1.2,3c-0.7,0.7-1.4,1.1-2.2,1.1c-0.7,0-1.1-0.3-1.2-1c-0.3,0.3-0.6,0.5-0.9,0.7
		c-0.3,0.2-0.7,0.2-1,0.2c-0.6,0-1.1-0.2-1.5-0.7c-0.4-0.4-0.6-1-0.6-1.6c0-1.1,0.3-2,1-2.8c0.7-0.9,1.5-1.3,2.5-1.3
		c0.8,0,1.3,0.4,1.7,1.2c0-0.1,0.1-0.3,0.2-0.5s0.1-0.3,0.2-0.5h1l-1.3,4.1c-0.1,0.3-0.1,0.5-0.1,0.7c0,0.3,0.1,0.4,0.3,0.4
		c0.6,0,1.1-0.3,1.5-1c0.5-0.6,0.7-1.4,0.7-2.3c0-1.1-0.4-2-1.3-2.7c-0.9-0.6-1.9-1-3.1-1c-1.3,0-2.4,0.4-3.2,1.3
		c-0.8,0.9-1.3,1.9-1.3,3.2c0,1.3,0.4,2.4,1.3,3.3c0.9,0.9,1.9,1.3,3.2,1.3c1.7,0,3.1-0.6,4-1.7h0.9c-0.5,0.8-1.2,1.4-2,1.9
		C36,28.2,35,28.4,34,28.4c-0.8,0-1.6-0.1-2.3-0.4c-0.7-0.3-1.3-0.7-1.8-1.3c-0.5-0.5-0.8-1.1-1-1.7c-0.2-0.6-0.4-1.3-0.4-2
		c0-1.5,0.5-2.7,1.4-3.7c1-1.1,2.4-1.7,4.1-1.7c0.7,0,1.4,0.1,2,0.3c0.6,0.2,1.2,0.5,1.7,0.9c0.5,0.4,1,0.9,1.3,1.5
		C39.2,20.7,39.3,21.4,39.3,22.1z M35.5,22.1c0-0.4-0.1-0.8-0.4-1.1v0c-0.2-0.2-0.5-0.3-0.8-0.3c-0.5,0-1.1,0.3-1.5,0.9
		c-0.5,0.7-0.8,1.4-0.8,2.2c0,0.5,0.1,0.8,0.3,1.1c0.2,0.3,0.5,0.4,0.8,0.4s0.7-0.1,1-0.3c0.3-0.2,0.6-0.5,0.8-0.8
		c0.2-0.3,0.4-0.7,0.5-1S35.5,22.5,35.5,22.1z"/>
</g>
<polygon class="st0" points="1.2,4.8 1.2,27.2 15.5,13 "/>
<path class="st0" d="M39.3,2.9c-0.2-1-1.1-1.8-2.2-1.8H3.5c-1.1,0-2,0.8-2.3,1.8l19,10.9L39.3,2.9z"/>
<path class="st0" d="M27.4,21c0.1-0.7,0.4-1.5,1-2.3l-4.8-4.8l-3.3,1.8L17,13.9L2.4,28.4h27.1C27,25.6,27.2,23.1,27.4,21z"/>
<path class="st0" d="M34.7,16c2.8,0.4,4.1,1.6,4.6,2.4V4.8L25.1,13l4.5,4.4C30.8,16.4,32.6,15.7,34.7,16z"/>
</svg>
