<?xml version="1.0" encoding="utf-8"?>
<!-- Generator: Adobe Illustrator 23.0.5, SVG Export Plug-In . SVG Version: 6.00 Build 0)  -->
<svg version="1.1" id="Layer_1" xmlns="http://www.w3.org/2000/svg" xmlns:xlink="http://www.w3.org/1999/xlink" x="0px" y="0px"
	 viewBox="0 0 11.5 12.9" style="enable-background:new 0 0 11.5 12.9;" xml:space="preserve">
<style type="text/css">
	.st0{fill:#4D4D4D;}
</style>
<path class="st0" d="M10.8,4.2h-1V3c0-1.6-1.3-3-3-3H4.7c-1.6,0-3,1.3-3,3v1.2h-1C0.3,4.2,0,4.5,0,4.9v7.3c0,0.4,0.3,0.8,0.8,0.8h10
	c0.4,0,0.8-0.3,0.8-0.8V4.9C11.5,4.5,11.2,4.2,10.8,4.2z M3.2,3c0-0.8,0.7-1.5,1.5-1.5h2.2c0.8,0,1.5,0.7,1.5,1.5v1.2H3.2V3z
	 M10,11.4H1.5V5.7h1h6.6h1V11.4z"/>
<path class="st0" d="M6.7,7.7c0-0.6-0.5-1-1-1s-1,0.5-1,1c0,0.4,0.2,0.8,0.6,0.9v1.7h0.9V8.6C6.5,8.4,6.7,8.1,6.7,7.7z"/>
</svg>
