<?xml version="1.0" encoding="utf-8"?>
<!-- Generator: Adobe Illustrator 23.0.5, SVG Export Plug-In . SVG Version: 6.00 Build 0)  -->
<svg version="1.1" id="Layer_1" xmlns="http://www.w3.org/2000/svg" xmlns:xlink="http://www.w3.org/1999/xlink" x="0px" y="0px"
	 viewBox="0 0 60.1 59.7" style="enable-background:new 0 0 60.1 59.7;" xml:space="preserve">
<style type="text/css">
	.st0{fill:#666666;}
</style>
<path class="st0" d="M43.6,38.1l-7.9-3.4c2.4-1.6,4-4.4,4-7.5v-3.3c0-5-4.1-9.1-9.1-9.1c-5,0-9.1,4.1-9.1,9.1v3.3
	c0,3.1,1.6,5.8,4,7.5l-7.9,3.4c-2.6,1.2-4.3,3.8-4.3,6.7h2.6c0-1.9,1.1-3.6,2.8-4.4l9.7-4.2h4.6l9.6,4.2c1.7,0.8,2.8,2.5,2.8,4.4
	h2.6C47.9,42,46.2,39.3,43.6,38.1z M24.1,27.2v-2.9H32l2.8-3.1l-1.9-1.7l-2,2.2h-6.4c0.9-2.5,3.3-4.3,6.1-4.3c3.3,0,6,2.5,6.4,5.7
	l-1.3-1l-1.6,2l2.9,2.4v0.7c0,3.6-2.9,6.5-6.5,6.5C27,33.7,24.1,30.8,24.1,27.2z"/>
</svg>
