<?xml version="1.0" encoding="utf-8"?>
<!-- Generator: Adobe Illustrator 23.0.5, SVG Export Plug-In . SVG Version: 6.00 Build 0)  -->
<svg version="1.1" id="Layer_1" xmlns="http://www.w3.org/2000/svg" xmlns:xlink="http://www.w3.org/1999/xlink" x="0px" y="0px"
	 viewBox="0 0 25 23.8" style="enable-background:new 0 0 25 23.8;" xml:space="preserve">
<style type="text/css">
	.st0{fill:#4D4D4D;}
</style>
<g>
	<path class="st0" d="M5.2,0H1C0.4,0,0,0.4,0,1v4.1c0,0.4,0.4,1,1,1h4.2c0.4,0,0.8-0.4,1-0.7V1C6.1,0.4,5.6,0,5.2,0z M4.2,1.8v2.4
		H1.8V1.8H4.2z"/>
	<path class="st0" d="M5.2,8.9H1c-0.6,0-1,0.4-1,0.8v4.2c0,0.6,0.5,1,1,1h4.2c0.5,0,0.8-0.4,1-0.7V9.8C6.1,9.2,5.6,8.9,5.2,8.9z
		 M4.2,10.7V13H1.8v-2.4C1.8,10.7,4.2,10.7,4.2,10.7z"/>
	<path class="st0" d="M5.2,17.7H1c-0.6,0-1,0.5-1,1v4.2c0,0.6,0.5,1,1,1h4.2c0.4,0,0.8-0.4,1-1v-4.2C6.1,18,5.6,17.7,5.2,17.7z
		 M4.2,19.6V22H1.8v-2.4H4.2z"/>
	<path class="st0" d="M9.1,6.1H24c0.4,0,0.8-0.4,1-0.7V1c0-0.6-0.5-1-1-1H9.1c-0.4,0-1,0.4-1,1v4.1C8.1,5.7,8.7,6.1,9.1,6.1z
		 M10,4.2V1.8h13.1v2.4H10z"/>
	<path class="st0" d="M24,8.7H9.1c-0.6,0-1,0.5-1,1v4.2c0,0.6,0.5,1,1,1H24c0.4,0,0.8-0.4,1-1V9.7C25,9.1,24.5,8.7,24,8.7z
		 M23.1,10.7V13H10v-2.4C10,10.7,23.1,10.7,23.1,10.7z"/>
	<path class="st0" d="M24,17.7H9.1c-0.6,0-1,0.5-1,1v4.2c0,0.6,0.5,1,1,1H24c0.4,0,0.8-0.4,1-1v-4.2C25,18,24.5,17.7,24,17.7z
		 M23.1,19.6V22H10v-2.4H23.1z"/>
</g>
</svg>
