<?xml version="1.0" encoding="utf-8"?>
<!-- Generator: Adobe Illustrator 23.0.5, SVG Export Plug-In . SVG Version: 6.00 Build 0)  -->
<svg version="1.1" id="Layer_1" xmlns="http://www.w3.org/2000/svg" xmlns:xlink="http://www.w3.org/1999/xlink" x="0px" y="0px"
	 viewBox="0 0 25 25.3" style="enable-background:new 0 0 25 25.3;" xml:space="preserve">
<style type="text/css">
	.st0{fill:#4D4D4D;}
</style>
<g>
	<path class="st0" d="M10.4,0H1C0.4,0,0,0.4,0,1v9.3c0,0.5,0.4,1,1,1h9.3c0.5,0,0.9-0.4,1.1-0.8V1C11.4,0.4,10.9,0,10.4,0z M9.4,2
		v7.4H2V2H9.4z"/>
	<path class="st0" d="M14.6,11.4h9.3c0.5,0,0.9-0.4,1.1-0.8V1c0-0.6-0.6-1-1-1h-9.4c-0.6,0-1,0.4-1,1v9.3
		C13.6,11,14.1,11.4,14.6,11.4z M15.5,9.4V2h7.4v7.4H15.5z"/>
	<path class="st0" d="M10.4,14H1c-0.6,0-1,0.6-1,1v9.3c0,0.6,0.6,1,1,1h9.3c0.5,0,0.9-0.4,1.1-0.9V15C11.4,14.4,10.9,14,10.4,14z
		 M9.4,16v7.3H2V16H9.4z"/>
	<path class="st0" d="M24,14h-9.4c-0.6,0-1,0.6-1,1v9.3c0,0.6,0.6,1,1,1h9.3c0.5,0,0.9-0.4,1.1-0.9V15C25,14.4,24.4,14,24,14z
		 M15.5,23.3V16h7.4v7.3C22.9,23.3,15.5,23.3,15.5,23.3z"/>
</g>
</svg>
