<?xml version="1.0" encoding="utf-8"?>
<!-- Generator: Adobe Illustrator 23.0.5, SVG Export Plug-In . SVG Version: 6.00 Build 0)  -->
<svg version="1.1" id="Layer_1" xmlns="http://www.w3.org/2000/svg" xmlns:xlink="http://www.w3.org/1999/xlink" x="0px" y="0px"
	 viewBox="0 0 16 20.6" style="enable-background:new 0 0 16 20.6;" xml:space="preserve">
<style type="text/css">
	.st0{fill:#ed297b;}
</style>
<g>
	<g>
		<path class="st0" d="M12.3,20.6c-0.2,0-0.4,0-0.4,0c-0.1,0-0.1-0.1-0.3-0.2l-2.5-2.4c-0.2,0-0.4,0-0.5,0c-0.2,0-0.4,0-0.6,0
			c-1.3,0-2.5-0.2-3.5-0.7c-1-0.4-1.8-1.1-2.5-1.8c-0.7-0.8-1.2-1.7-1.5-2.8S0,10.3,0,9c0-1.2,0.1-2.3,0.4-3.4s0.8-2,1.4-2.8
			c0.7-0.9,1.6-1.6,2.7-2.1C5.6,0.2,6.7,0,8,0c1.3,0,2.5,0.2,3.5,0.7c1,0.5,1.9,1.2,2.6,2.1c0.5,0.6,0.9,1.3,1.2,2.1
			s0.5,1.6,0.6,2.5c0.1,0.9,0.1,1.8,0,2.7c-0.1,0.9-0.3,1.8-0.6,2.6c-0.3,0.8-0.7,1.6-1.2,2.3c-0.5,0.7-1.1,1.3-1.8,1.7l3.3,3.1
			c0.5,0.5,0.4,0.7-0.2,0.7H12.3z M11.5,4.7c-0.9-1.3-2-1.9-3.5-1.9c-0.8,0-1.5,0.2-2.1,0.5C5.3,3.7,4.8,4.1,4.5,4.7
			C4.1,5.3,3.8,6,3.6,6.7C3.4,7.4,3.4,8.2,3.4,9c0,0.8,0.1,1.5,0.3,2.3c0.2,0.7,0.5,1.4,0.9,2c0.4,0.6,0.9,1,1.5,1.4
			c0.6,0.3,1.3,0.5,2.1,0.5c0.7,0,1.3-0.2,1.9-0.5s1-0.7,1.4-1.3c0.4-0.5,0.7-1.2,0.9-2c0.2-0.8,0.3-1.6,0.3-2.5
			c0-0.8-0.1-1.6-0.3-2.3C12.2,5.9,11.9,5.3,11.5,4.7z"/>
	</g>
</g>
</svg>
