<?xml version="1.0" encoding="utf-8"?>
<!-- Generator: Adobe Illustrator 23.0.5, SVG Export Plug-In . SVG Version: 6.00 Build 0)  -->
<svg version="1.1" id="Layer_1" xmlns="http://www.w3.org/2000/svg" xmlns:xlink="http://www.w3.org/1999/xlink" x="0px" y="0px"
	 viewBox="0 0 17 17" style="enable-background:new 0 0 17 17;" xml:space="preserve">
<style type="text/css">
	.st0{fill:#C2C2C2;}
</style>
<g>
	<path class="st0" d="M13.7,0H13h-1h-2H9H5H4H0v17h2.9h1h9h1H17V3.3L13.7,0z M10,1h2v3.3C12,4.7,11.7,5,11.3,5H10V1z M5,1h4v4H5.7
		C5.3,5,5,4.7,5,4.3V1z M12.9,16h-9v-5h9V16z M16,16h-2.1v-6h-11v6H1V1h3v3.3C4,5.2,4.8,6,5.7,6H9h1h1.3c1,0,1.7-0.8,1.7-1.7V1h0.3
		L16,3.7V16z"/>
	<rect x="5.8" y="12" class="st0" width="5.3" height="1"/>
	<rect x="5.8" y="14" class="st0" width="5.3" height="1"/>
</g>
</svg>
