<?xml version="1.0" encoding="utf-8"?>
<!-- Generator: Adobe Illustrator 23.0.5, SVG Export Plug-In . SVG Version: 6.00 Build 0)  -->
<svg version="1.1" id="Layer_1" xmlns="http://www.w3.org/2000/svg" xmlns:xlink="http://www.w3.org/1999/xlink" x="0px" y="0px"
	 viewBox="0 0 25 25" style="enable-background:new 0 0 25 25;" xml:space="preserve">
<style type="text/css">
	.st0{fill:#ED297B;}
</style>
<g>
	<path class="st0" d="M10.4,0H1C0.4,0,0,0.4,0,1v9.2c0,0.5,0.4,1,1,1h9.3c0.5,0,1-0.4,1.1-0.8l0-9.4C11.4,0.4,10.9,0,10.4,0z
		 M9.4,1.9v7.3H2V1.9H9.4z"/>
	<path class="st0" d="M14.6,11.2h9.3c0.5,0,1-0.4,1.1-0.8L25,1c0-0.6-0.5-1-1-1h-9.4c-0.6,0-1,0.4-1,1v9.2
		C13.6,10.8,14.1,11.2,14.6,11.2z M15.5,9.3V1.9h7.4v7.3H15.5z"/>
	<path class="st0" d="M10.4,13.8H1c-0.6,0-1,0.5-1,1V24c0,0.6,0.5,1,1,1h9.3c0.5,0,1-0.4,1.1-0.8l0-9.4
		C11.4,14.2,10.9,13.8,10.4,13.8z M9.4,15.8v7.2H2v-7.2H9.4z"/>
	<path class="st0" d="M24,13.8h-9.4c-0.6,0-1,0.5-1,1V24c0,0.6,0.5,1,1,1h9.3c0.5,0,1-0.4,1.1-0.8l0-9.4C25,14.2,24.5,13.8,24,13.8z
		 M15.5,23.1v-7.2h7.4v7.2H15.5z"/>
</g>
</svg>
