<?xml version="1.0" encoding="utf-8"?>
<!-- Generator: Adobe Illustrator 23.0.5, SVG Export Plug-In . SVG Version: 6.00 Build 0)  -->
<svg version="1.1" id="Layer_1" xmlns="http://www.w3.org/2000/svg" xmlns:xlink="http://www.w3.org/1999/xlink" x="0px" y="0px"
	 viewBox="0 0 11.4 14.1" style="enable-background:new 0 0 11.4 14.1;" xml:space="preserve">
<style type="text/css">
	.st0{fill:#4D4D4D;}
</style>
<path class="st0" d="M11.3,2.6c-0.1-0.2-0.2-0.3-0.4-0.4L4.8,0C4.4-0.1,4,0.1,3.8,0.5l-0.3,1c-0.1,0.3,0,0.7,0.3,0.9l-1.1,3L1,5.8
	C0.8,5.9,0.6,6.1,0.5,6.3L0,7.6C0,7.8,0,8,0.1,8.2s0.2,0.3,0.4,0.4L4,9.8l-1.1,3.2c-0.1,0.4,0.1,0.8,0.5,1c0.1,0,0.2,0,0.3,0
	c0.3,0,0.6-0.2,0.7-0.5l1.1-3.2l3.5,1.2c0.1,0,0.2,0,0.3,0c0.3,0,0.6-0.2,0.7-0.5l0.5-1.4c0.1-0.2,0-0.5-0.1-0.7l-1-1.4l1.1-3
	c0.1,0,0.2,0,0.3-0.1c0.2-0.1,0.3-0.2,0.4-0.4l0.3-1C11.4,3,11.4,2.8,11.3,2.6z M9.1,3.5l-1.4,4C7.6,7.7,7.7,8,7.8,8.2l1,1.4
	L8.7,9.9L5.2,8.7c0,0,0,0,0,0s0,0,0,0L1.7,7.4l0.1-0.3l1.7-0.5C3.7,6.6,3.9,6.4,4,6.2l1.4-4c0-0.1,0-0.2,0-0.3l3.8,1.4
	C9.2,3.3,9.2,3.4,9.1,3.5z"/>
</svg>
