<?xml version="1.0" encoding="utf-8"?>
<!-- Generator: Adobe Illustrator 23.0.5, SVG Export Plug-In . SVG Version: 6.00 Build 0)  -->
<svg version="1.1" id="Layer_1" xmlns="http://www.w3.org/2000/svg" xmlns:xlink="http://www.w3.org/1999/xlink" x="0px" y="0px"
	 viewBox="0 0 14.8 14.7" style="enable-background:new 0 0 14.8 14.7;" xml:space="preserve">
<style type="text/css">
	.st0{fill:#999;}
</style>
<g>
	<g>
		<path class="st0" d="M12.4,14.7c-0.1,0-0.3,0-0.3,0c-0.1,0-0.2-0.1-0.2-0.3l-1.3-3.2H4.2L3,14.4c-0.1,0.2-0.1,0.2-0.2,0.3
			c-0.1,0-0.2,0-0.3,0h-2c-0.2,0-0.4,0-0.4-0.1c-0.1-0.1-0.1-0.2,0-0.4L5.9,0.3C6,0.1,6.2,0,6.4,0h2c0.2,0,0.3,0,0.3,0.1
			c0.1,0,0.1,0.1,0.2,0.3l5.8,13.9c0.1,0.2,0.1,0.3,0,0.4c-0.1,0.1-0.2,0.1-0.4,0.1H12.4z M5.2,8.9h4.4L7.4,3.5L5.2,8.9z"/>
	</g>
</g>
</svg>
