<?xml version="1.0" encoding="utf-8"?>
<!-- Generator: Adobe Illustrator 23.0.5, SVG Export Plug-In . SVG Version: 6.00 Build 0)  -->
<svg version="1.1" id="Layer_1" xmlns="http://www.w3.org/2000/svg" xmlns:xlink="http://www.w3.org/1999/xlink" x="0px" y="0px"
	 viewBox="0 0 24.8 28.7" style="enable-background:new 0 0 24.8 28.7;" xml:space="preserve">
<style type="text/css">
	.st0{fill:#ed297b;}
	.st1{fill:none;stroke:#ed297b;stroke-width:2;stroke-linecap:round;stroke-miterlimit:10;}
</style>
<g>
	<path class="st0" d="M12.4,3c3.2,0,5.7,2.6,5.7,5.7s-2.6,5.7-5.7,5.7c-3.2,0-5.7-2.6-5.7-5.7S9.2,3,12.4,3 M12.4,1
		C8.1,1,4.7,4.5,4.7,8.7c0,4.3,3.5,7.7,7.7,7.7c4.3,0,7.7-3.5,7.7-7.7C20.1,4.5,16.7,1,12.4,1L12.4,1z"/>
</g>
<g>
	<path class="st1" d="M19.9,26.8h3V26c0-4.3-4.7-7.9-10.6-7.9S1.9,21.6,1.9,26v0.9h12.4"/>
</g>
</svg>
