<?xml version="1.0" encoding="utf-8"?>
<!-- Generator: Adobe Illustrator 23.0.5, SVG Export Plug-In . SVG Version: 6.00 Build 0)  -->
<svg version="1.1" id="Layer_1" xmlns="http://www.w3.org/2000/svg" xmlns:xlink="http://www.w3.org/1999/xlink" x="0px" y="0px"
	 viewBox="0 0 108.4 114" style="enable-background:new 0 0 108.4 114;" xml:space="preserve">
<style type="text/css">
	.st0{fill:#FFCCE3;}
	.st1{fill:#FFD0BA;}
	.st2{fill:#FF0529;}
	.st3{fill:#5bace9;}
	.st4{fill:#FFFFFF;}
	.st5{fill:#10103E;}
	.st6{fill:#FFCA00;}
</style>
<ellipse class="st0" cx="54.2" cy="108.8" rx="54.2" ry="5.2"/>
<path class="st1" d="M47,23.8c0,0-3.5-1.9-2.5-4.4c1-2.5,4.8-0.4,5.9,0.6s10.2,11.7,10.2,11.7l-4.2,0.8L47,23.8z"/>
<polygon class="st1" points="59,35.2 63.6,46.1 65.7,45.3 62.8,33.9 59.9,30.7 56.1,32.1 "/>
<polygon class="st1" points="63.6,46.3 64.8,50.3 67,51 69.4,49.3 67.5,47.6 65.2,44.8 63.7,44.9 "/>
<path class="st1" d="M65.6,108.6l-1-3.6c1.4-11-9.3-40.3-9.3-40.3s-5.7,1.7-5,2.7c9.5,14.4,11.4,37.3,11.4,37.3l-3.8,1.5l-6,2.3
	H65.6z"/>
<path class="st1" d="M5.1,101.3l10.1,7.3c0.7-0.5,0.8-1.9,1.2-2.6c6-10,16.7-33.8,16.8-34l-4.1-0.5c-2.3,14.2-14.5,32.1-14.5,32.1
	l-3-0.7L5.1,101.3z"/>
<path class="st1" d="M40.3,42.6L40.3,42.6c-3.2,4.5-5.7,9.5-7.3,14.8l-4.7,15.2l-9.4,24.2l-2.4,9.2l11.5-17.8
	c2.5-4.2,4.1-8.9,4.6-13.8v0l11.1-20.5l11.3,26.5l1.8,2.1l4.1,15.6l3.5-0.4L62.4,83l-2.8-4.9l-3.3-16.3c-1.2-5.9-3-11.6-5.5-17.1
	l-0.4-1L40.3,42.6z"/>
<polygon class="st2" points="51.9,108.6 65.6,108.6 64.5,105.1 59.9,106.5 57.8,106.3 "/>
<path class="st2" d="M5.1,101.3l10.4,7.5c0.7-0.5,0.6-2.1,1.3-2.7l-4-1.5l-0.8-1.7L5.1,101.3z"/>
<path class="st3" d="M50.3,45l1.5-20.5c0,0,1.4-6-2.3-6.4s-6.4,0.6-8,3.4c-0.9,1.5-1.9,3.1-2.6,4.1c-0.6,0.8-0.5,2,0.1,2.7l0.2,0.2
	c1.1,1.3,1.6,2.9,1.6,4.5l-0.5,12C40.2,45,44.8,47.9,50.3,45z"/>
<path class="st1" d="M49.4,18.2c0,0-3.1,1.7-6.7,1.6l1.8-2.4c0,0,0.8-3.6-0.7-4.3h-2.1c0,0-0.9-0.8-0.6-3.1c0.3-2.3,1.1-7.3,3-7.5
	c2-0.1,4.5-0.4,5.4,2.5s-2.2,7-2.2,7S46.8,16.3,49.4,18.2z"/>
<path class="st4" d="M40.6,41.2c0,0-10.4,14.9-14.2,25.8c0,0,9.8,9.1,18.4,8.6c8.6-0.5,16.5-7.7,16.5-7.7L50.6,41.2H40.6z"/>
<path class="st1" d="M45.4,24.6c0,0-0.7-3.9,1.8-4.7c2.6-0.8,3.3,3.5,3.3,5s-2.6,15.3-2.6,15.3l-3.2-2.7L45.4,24.6z"/>
<polygon class="st1" points="42.9,39.5 33.3,46.5 34.6,48.4 44.6,43.7 47.9,40.2 45,35.8 "/>
<polygon class="st1" points="33.3,46.5 29.2,47.1 28.1,49.1 29.4,51.8 31.4,50.2 34.6,48.4 34.7,46.9 "/>
<g>
	<circle class="st5" cx="95.6" cy="108.1" r="2.5"/>
	<circle class="st4" cx="95.6" cy="108.1" r="0.9"/>
	<path class="st3" d="M103.2,102.7l-10.6,4.8l-15-33.3l10.6-4.8c2.2-1,4.8,0,5.8,2.2L105.4,97C106.4,99.1,105.4,101.7,103.2,102.7z"
		/>
	
		<rect x="88.5" y="70.6" transform="matrix(0.9114 -0.4114 0.4114 0.9114 -28.6545 44.6438)" class="st5" width="1.7" height="36.6"/>
	
		<rect x="72.6" y="51.4" transform="matrix(0.9114 -0.4114 0.4114 0.9114 -19.4745 35.8279)" class="st4" width="1.7" height="23.4"/>
	<rect x="66.4" y="48.8" transform="matrix(0.9114 -0.4114 0.4114 0.9114 -14.8508 32.414)" class="st3" width="2.9" height="3.9"/>
</g>
<path class="st1" d="M40.3,9c0,0.1,0,0.1,0.1,0.1c0.3,0.3,0.6,0.6,1,0.9c0,0,0.1,0.1,0.2,0.1c0,0,0.1,0,0.1-0.1
	c0.1-0.2,0.2-0.4,0.2-0.6c0.2-1,0.2-2.1,0.3-3.1C41.6,7.2,41,8,40.4,8.8C40.3,8.8,40.3,8.9,40.3,9z"/>
<path class="st5" d="M46,10.7c0.1,0.7,0.6,1.2,1.1,1.6c0.5,0.4,1.1,0.7,1.7,1.2c1.3,1,1.9,2.6,2.7,4.1c0.3,0.6,0.7,1.1,1.2,1.6
	c0.5,0.4,1.2,0.7,1.8,0.6c0.7-0.1,1.3-0.5,1.7-1c0.7-0.8,1.1-1.9,0.9-3c-0.2-0.9-0.9-1.7-1.6-2.3s-1.5-1.1-2.2-1.8
	c-0.7-0.8-1.2-1.7-1.4-2.8c-0.2-1-0.2-2-0.4-3c-0.4-1.4-1.5-2.6-2.8-3.2c-0.7-0.4-1.5-0.6-2.3-0.7c-0.9-0.1-1.8-0.2-2.7,0.1
	c-0.9,0.3-1.6,1-1.8,1.9C41.7,4.6,42,5.4,42.5,6c0.5,0.6,1.1,1,1.8,1.4C45,7.7,45.7,8.1,46,8.9C46.1,9.5,45.9,10.1,46,10.7z"/>
<g>
	<ellipse transform="matrix(0.2088 -0.978 0.978 0.2088 31.1163 49.2291)" class="st4" cx="46" cy="5.4" rx="3.2" ry="16.8"/>
	<path class="st6" d="M51.3,6.7c-0.2,0.8-2.7,0.9-5.7,0.3c-3-0.6-5.3-1.8-5.1-2.6c0.1-0.4,0.2-0.8,0.4-1.2c0.4,0.7,2.5,1.7,5,2.2
		s4.8,0.5,5.5,0C51.5,5.8,51.4,6.3,51.3,6.7z"/>
	<path class="st4" d="M51.5,5.4c-0.7,0.5-2.9,0.5-5.5,0s-4.6-1.5-5-2.2c1.1-2.3,3.6-3.6,6.1-3C49.7,0.7,51.4,2.9,51.5,5.4z"/>
</g>
</svg>
