<?xml version="1.0" encoding="utf-8"?>
<!-- Generator: Adobe Illustrator 23.0.5, SVG Export Plug-In . SVG Version: 6.00 Build 0)  -->
<svg version="1.1" id="Layer_1" xmlns="http://www.w3.org/2000/svg" xmlns:xlink="http://www.w3.org/1999/xlink" x="0px" y="0px"
	 viewBox="0 0 44.1 60.2" style="enable-background:new 0 0 44.1 60.2;" xml:space="preserve">
<style type="text/css">
	.st0{fill:#CCCCCC;}
</style>
<path class="st0" d="M21.2,31.2c0.6-0.9,0.3-2.2-0.6-2.8s-2.2-0.3-2.8,0.6L0.3,57.1c-0.6,1-0.3,2.2,0.7,2.8c0.9,0.6,2.1,0.3,2.7-0.7
	L21.2,31.2z"/>
<path class="st0" d="M0.3,3.1C-0.3,2.1,0,0.9,1,0.3C1.9-0.3,3.2,0,3.8,0.9L21.2,29c0.6,0.9,0.3,2.2-0.6,2.8
	c-0.9,0.6-2.2,0.3-2.8-0.6L0.3,3.1z"/>
<path class="st0" d="M32.5,31.2c0.6-0.9,0.3-2.2-0.6-2.8c-0.9-0.6-2.2-0.3-2.8,0.6L11.6,57.1c-0.6,0.9-0.3,2.2,0.6,2.8
	c1,0.6,2.2,0.3,2.8-0.7L32.5,31.2z"/>
<path class="st0" d="M11.6,3.1c-0.6-0.9-0.3-2.2,0.6-2.8C13.1-0.3,14.4,0,15,0.9L32.5,29c0.6,0.9,0.3,2.2-0.6,2.8
	c-0.9,0.6-2.2,0.3-2.8-0.6L11.6,3.1z"/>
<path class="st0" d="M43.8,31.2c0.6-0.9,0.3-2.2-0.6-2.8c-0.9-0.6-2.2-0.3-2.8,0.6L22.9,57.1c-0.6,0.9-0.3,2.2,0.6,2.8
	c1,0.6,2.2,0.3,2.8-0.7L43.8,31.2z"/>
<path class="st0" d="M22.9,3.1c-0.6-0.9-0.3-2.2,0.6-2.8s2.2-0.3,2.8,0.6L43.8,29c0.6,0.9,0.3,2.2-0.6,2.8c-0.9,0.6-2.2,0.3-2.8-0.6
	L22.9,3.1z"/>
<path class="st0" d="M21.2,31.2c0.6-0.9,0.3-2.2-0.6-2.8s-2.2-0.3-2.8,0.6L0.3,57.1c-0.6,1-0.3,2.2,0.7,2.8c0.9,0.6,2.1,0.3,2.7-0.7
	L21.2,31.2z"/>
<path class="st0" d="M0.3,3.1C-0.3,2.1,0,0.9,1,0.3C1.9-0.3,3.2,0,3.8,0.9L21.2,29c0.6,0.9,0.3,2.2-0.6,2.8
	c-0.9,0.6-2.2,0.3-2.8-0.6L0.3,3.1z"/>
<path class="st0" d="M32.5,31.2c0.6-0.9,0.3-2.2-0.6-2.8c-0.9-0.6-2.2-0.3-2.8,0.6L11.6,57.1c-0.6,0.9-0.3,2.2,0.6,2.8
	c1,0.6,2.2,0.3,2.8-0.7L32.5,31.2z"/>
<path class="st0" d="M11.6,3.1c-0.6-0.9-0.3-2.2,0.6-2.8C13.1-0.3,14.4,0,15,0.9L32.5,29c0.6,0.9,0.3,2.2-0.6,2.8
	c-0.9,0.6-2.2,0.3-2.8-0.6L11.6,3.1z"/>
<path class="st0" d="M43.8,31.2c0.6-0.9,0.3-2.2-0.6-2.8c-0.9-0.6-2.2-0.3-2.8,0.6L22.9,57.1c-0.6,0.9-0.3,2.2,0.6,2.8
	c1,0.6,2.2,0.3,2.8-0.7L43.8,31.2z"/>
<path class="st0" d="M22.9,3.1c-0.6-0.9-0.3-2.2,0.6-2.8s2.2-0.3,2.8,0.6L43.8,29c0.6,0.9,0.3,2.2-0.6,2.8c-0.9,0.6-2.2,0.3-2.8-0.6
	L22.9,3.1z"/>
</svg>
