<?xml version="1.0" encoding="utf-8"?>
<!-- Generator: Adobe Illustrator 23.0.5, SVG Export Plug-In . SVG Version: 6.00 Build 0)  -->
<svg version="1.1" id="Layer_1" xmlns="http://www.w3.org/2000/svg" xmlns:xlink="http://www.w3.org/1999/xlink" x="0px" y="0px"
	 viewBox="0 0 439.4 68.4" style="enable-background:new 0 0 439.4 68.4;" xml:space="preserve">
<style type="text/css">
	.st0{fill:#0D1E42;}
</style>
<path class="st0" d="M128.5,24.9"/>
<path class="st0" d="M229.8,52.8h-20.4V11.2c0-0.5-0.1-0.9-0.2-1.3c-0.6-2.1-2.5-3.7-4.8-3.7s-4.2,1.6-4.8,3.7
	c-0.1,0.4-0.2,0.9-0.2,1.3v45.9c0,0.2-0.1,0.4-0.1,0.6c0,2.3,1.6,4.2,3.7,4.8c0.4,0.1,0.9,0.2,1.3,0.2h25.5c2.8,0,5-2.2,5-5
	S232.5,52.8,229.8,52.8z"/>
<path class="st0" d="M33,11.4c-0.1-2.9-2.5-5.2-5.5-5.2c-2.9,0-5.3,2.3-5.5,5.2h0v0.1c0,0.1,0,0.3,0,0.4v19.5V46
	c0,3.1-2.5,5.5-5.5,5.5c-3.1,0-5.5-2.5-5.5-5.5h0c0-3-2.5-5.5-5.5-5.5S0,43,0,46c0,0,0,0,0,0c0,9.1,7.4,16.5,16.5,16.5
	c5.2,0,9.8-2.4,12.8-6.1C31.6,53.6,33,50,33,46.1v0c0,0,0,0,0,0h0V11.9C33,11.8,33,11.4,33,11.4L33,11.4z"/>
<path class="st0" d="M75.1,6.3c-2.5,0-4.6,1.7-5.3,4c-0.1,0.5-0.2,0.9-0.2,1.4v2.6l0,28.2c0,5.1-4.1,9.2-9.2,9.2
	c-5.1,0-9.2-4.1-9.2-9.2l0-28.2v-2.6c0-0.5-0.1-1-0.2-1.4c-0.6-2.3-2.8-4-5.3-4c-2.5,0-4.6,1.7-5.3,4c-0.1,0.5-0.2,0.9-0.2,1.4
	l0,30.8c0,7.8,4.4,14.6,10.9,17.9c2.8,1.4,5.9,2.2,9.2,2.2c0,0,0,0,0,0s0,0,0,0c3.3,0,6.4-0.8,9.2-2.2c6.5-3.3,10.9-10.1,10.9-17.9
	l0-30.8c0-0.5-0.1-1-0.2-1.4C79.8,8,77.7,6.3,75.1,6.3z"/>
<path class="st0" d="M193.8,37.5c0-2.8-2.2-5-4.9-5.1v0h-5.1h-12.9c-0.5,0-0.9,0.1-1.3,0.2c-2.1,0.6-3.7,2.5-3.7,4.8
	c0,2.3,1.6,4.3,3.7,4.8c0.4,0.1,0.9,0.2,1.3,0.2H182c-3,6-9.1,10.2-16.3,10.2c-10,0-18.2-8.1-18.2-18.2s8.1-18.2,18.2-18.2
	c6.3,0,11.9,3.2,15.2,8.1c0,0,0,0,0,0.1c0.9,1.3,2.4,2.2,4.2,2.2c2.8,0,5.1-2.3,5.1-5.1c0,0,0,0,0,0c0-1-0.3-1.9-0.8-2.7
	c0-0.1-0.1-0.1-0.1-0.2c-5.1-7.6-13.7-12.6-23.5-12.6c-15.6,0-28.3,12.7-28.3,28.3c0,15.6,12.7,28.3,28.3,28.3
	c12.9,0,23.7-8.6,27.1-20.3c0.4-1.2,0.6-2.5,0.8-3.8c0-0.3,0.1-0.7,0.1-1C193.8,37.6,193.8,37.6,193.8,37.5
	C193.8,37.5,193.8,37.5,193.8,37.5C193.8,37.5,193.8,37.5,193.8,37.5z"/>
<path class="st0" d="M275,38.5c2.8,0,5-2.2,5-5s-2.2-5-5-5h-24.5V16.3H275c2.8,0,5-2.2,5-5c0-2.8-2.2-5-5-5h-28.9
	c-0.2,0-0.4-0.1-0.6-0.1c-2.2,0-4,1.4-4.7,3.4c0,0,0,0.1,0,0.1c0,0.1-0.1,0.2-0.1,0.2c0,0.2-0.1,0.3-0.1,0.5c0,0,0,0,0,0
	c0,0.3-0.1,0.5-0.1,0.8v46.5c0,0,0,0,0,0c0,0,0,0,0,0c0,0.3,0,0.6,0.1,1c0,0,0,0.1,0,0.1c0.1,0.3,0.1,0.6,0.3,0.8c0,0,0,0.1,0,0.1
	c0.1,0.3,0.3,0.5,0.4,0.8c0,0,0,0,0,0c0.7,1,1.6,1.7,2.8,2c0.4,0.1,0.9,0.2,1.3,0.2H275c2.8,0,5-2.2,5-5c0-2.8-2.2-5-5-5h-24.5V38.5
	H275z"/>
<path class="st0" d="M130.8,10.1c-0.6-2.1-2.5-3.7-4.8-3.7c-2.3,0-4.2,1.6-4.8,3.7c-0.1,0.4-0.2,0.9-0.2,1.3v31.3L95.8,9.2
	c-0.3-0.4-0.6-0.7-0.9-1c-0.9-1.1-2.3-1.8-3.8-1.8c-0.7,0-1.3,0.2-1.9,0.4C89,6.9,88.9,7,88.7,7c0,0,0,0,0,0
	c-0.2,0.1-0.4,0.2-0.5,0.3c0,0,0,0-0.1,0.1c-0.9,0.7-1.5,1.6-1.8,2.7c-0.1,0.4-0.2,0.9-0.2,1.3v46.3c0,2.8,2.2,5,5,5
	c2.8,0,5-2.2,5-5V26.9l25,33.2c0.7,0.9,1.5,1.6,2.4,2c0.7,0.4,1.5,0.7,2.4,0.7c0.1,0,0.2,0,0.3,0c0.2,0,0.5,0,0.7-0.1c0,0,0,0,0.1,0
	c0.3-0.1,0.6-0.2,0.9-0.3c0,0,0,0,0,0c0.2-0.1,0.3-0.2,0.5-0.3c1.5-0.9,2.5-2.5,2.5-4.3V11.4C131,11,130.9,10.5,130.8,10.1z"/>
<g>
	<path class="st0" d="M369,25.7c-0.3-0.9-0.5-1.8-0.8-2.7c-0.3,1.1-0.6,2-0.8,2.9c-0.3,0.8-0.6,1.9-1.1,3.1l-2.9,7.8h9.5l-2.8-7.8
		C369.6,27.7,369.2,26.6,369,25.7z"/>
	<path class="st0" d="M341.9,21.6c-0.6-0.4-1.3-0.7-2.1-0.9c-0.8-0.2-1.7-0.2-2.7-0.2h-7.4v12h6.8c2.3,0,4-0.4,5.3-1.3
		c1.3-0.9,1.9-2.4,1.9-4.7v-0.6c0-1.1-0.2-2-0.5-2.6C342.9,22.5,342.5,22,341.9,21.6z"/>
	<path class="st0" d="M406,0h-77c-18.4,0-33.4,15-33.4,33.4V35c0,18.4,15,33.4,33.4,33.4h77c18.4,0,33.4-15,33.4-33.4v-1.6
		C439.4,15,424.5,0,406,0z M350.7,26.5c0,1.6-0.3,3.1-0.8,4.5c-0.5,1.4-1.4,2.7-2.5,3.7c-1.1,1.1-2.5,1.9-4.1,2.5
		c-1.7,0.6-3.6,0.9-5.9,0.9h-7.8v12.1c0,1-0.3,1.8-1,2.3c-0.7,0.5-1.5,0.7-2.4,0.7c-0.9,0-1.7-0.2-2.4-0.7c-0.7-0.5-1-1.2-1-2.3
		V19.2c0-1.7,0.3-2.9,1-3.5c0.7-0.6,1.9-1,3.6-1h10.1c2.3,0,4.3,0.3,6,0.8c1.7,0.6,3,1.3,4.1,2.3c1.1,1,1.9,2.2,2.4,3.5
		c0.5,1.4,0.8,2.8,0.8,4.4V26.5z M384.6,51.5c-0.4,0.8-1,1.3-1.9,1.6c-0.9,0.3-1.8,0.3-2.7,0.1c-0.9-0.2-1.5-0.9-1.9-2l-3.1-8.6
		h-13.6l-3.2,8.8c-0.4,1-1,1.7-1.8,1.9c-0.8,0.2-1.6,0.2-2.5-0.1c-0.9-0.3-1.5-0.8-1.9-1.5c-0.4-0.7-0.4-1.5,0-2.5l12.1-31.5
		c0.5-1.3,1.1-2.1,1.8-2.5c0.7-0.4,1.5-0.6,2.4-0.6c0.9,0,1.7,0.2,2.4,0.6c0.7,0.4,1.3,1.3,1.8,2.5l12.1,31.2
		C385,49.8,385,50.7,384.6,51.5z M415,19.1l-11,18.9v12.4c0,1-0.3,1.8-1,2.3c-0.7,0.5-1.5,0.7-2.4,0.7c-0.9,0-1.7-0.2-2.4-0.7
		c-0.7-0.5-1-1.2-1-2.3V37.9l-10.9-18.8c-0.5-0.9-0.6-1.7-0.4-2.5c0.3-0.8,0.9-1.4,1.8-1.9c0.8-0.4,1.6-0.5,2.5-0.3
		c0.9,0.2,1.5,0.7,2,1.7l8.6,15.4l8.5-15.4c0.5-0.9,1.2-1.5,2-1.7c0.8-0.2,1.6-0.1,2.5,0.3c0.8,0.4,1.4,1,1.8,1.7
		C415.7,17.1,415.6,18,415,19.1z"/>
</g>
</svg>
