<?xml version="1.0" encoding="utf-8"?>
<!-- Generator: Adobe Illustrator 23.0.5, SVG Export Plug-In . SVG Version: 6.00 Build 0)  -->
<svg version="1.1" id="Layer_1" xmlns="http://www.w3.org/2000/svg" xmlns:xlink="http://www.w3.org/1999/xlink" x="0px" y="0px"
	 viewBox="0 0 17.8 17" style="enable-background:new 0 0 17.8 17;" xml:space="preserve">
<style type="text/css">
	.st0{fill:#4D4D4D;}
</style>
<path class="st0" d="M3.7,4.4h-3C0.3,4.4,0,4.1,0,3.7V0.8C0,0.3,0.3,0,0.8,0h3c0.4,0,0.8,0.3,0.8,0.8v2.9C4.5,4.1,4.2,4.4,3.7,4.4z
	 M1.5,2.9H3V1.5H1.5V2.9z"/>
<path class="st0" d="M3.7,10.7h-3C0.3,10.7,0,10.4,0,9.9V7c0-0.4,0.3-0.8,0.8-0.8h3c0.4,0,0.8,0.3,0.8,0.8v2.9
	C4.5,10.4,4.2,10.7,3.7,10.7z M1.5,9.2H3V7.7H1.5V9.2z"/>
<path class="st0" d="M3.7,17h-3C0.3,17,0,16.6,0,16.2v-2.9c0-0.4,0.3-0.8,0.8-0.8h3c0.4,0,0.8,0.3,0.8,0.8v2.9
	C4.5,16.6,4.2,17,3.7,17z M1.5,15.5H3V14H1.5V15.5z"/>
<path class="st0" d="M17,4.4H6.5c-0.4,0-0.8-0.3-0.8-0.8V0.8C5.7,0.3,6.1,0,6.5,0H17c0.4,0,0.8,0.3,0.8,0.8v2.9
	C17.8,4.1,17.4,4.4,17,4.4z M7.2,2.9h9V1.5h-9V2.9z"/>
<path class="st0" d="M17,10.7H6.5c-0.4,0-0.8-0.3-0.8-0.8V7c0-0.4,0.3-0.8,0.8-0.8H17c0.4,0,0.8,0.3,0.8,0.8v2.9
	C17.8,10.4,17.4,10.7,17,10.7z M7.2,9.2h9V7.7h-9V9.2z"/>
<path class="st0" d="M17,17H6.5c-0.4,0-0.8-0.3-0.8-0.8v-2.9c0-0.4,0.3-0.8,0.8-0.8H17c0.4,0,0.8,0.3,0.8,0.8v2.9
	C17.8,16.6,17.4,17,17,17z M7.2,15.5h9V14h-9V15.5z"/>
</svg>
