<?xml version="1.0" encoding="utf-8"?>
<!-- Generator: Adobe Illustrator 23.0.5, SVG Export Plug-In . SVG Version: 6.00 Build 0)  -->
<svg version="1.1" id="Layer_1" xmlns="http://www.w3.org/2000/svg" xmlns:xlink="http://www.w3.org/1999/xlink" x="0px" y="0px"
	 viewBox="0 0 49.3 53.3" style="enable-background:new 0 0 49.3 53.3;" xml:space="preserve">
<style type="text/css">
	.st0{fill:#333;}
</style>
<g>
	<g>
		<path class="st0" d="M44.3,53.3H5v-7.7h39.3V53.3z M7.5,50.8h34.3v-2.7H7.5V50.8z"/>
	</g>
	<g>
		<path class="st0" d="M44,48.1H5.3L0,27.8h49.3L44,48.1z M7.2,45.6h34.9l4-15.2H3.2L7.2,45.6z"/>
	</g>
	<g>
		<g>
			<rect x="16.5" y="35.4" class="st0" width="7.3" height="2.5"/>
		</g>
		<g>
			<rect x="20.2" y="39.5" class="st0" width="3.6" height="2.5"/>
		</g>
		<g>
			<rect x="25.4" y="35.4" class="st0" width="7.3" height="2.5"/>
		</g>
		<g>
			<rect x="25.4" y="39.5" class="st0" width="3.6" height="2.5"/>
		</g>
	</g>
	<g>
		<g>
			<g>
				<path class="st0" d="M24.6,20.8c-4.9,0-8.8-3.9-8.8-8.8V8.8c0-4.9,3.9-8.8,8.8-8.8c4.9,0,8.8,3.9,8.8,8.8V12
					C33.4,16.8,29.5,20.8,24.6,20.8z M24.6,2.5c-3.5,0-6.3,2.8-6.3,6.3V12c0,3.5,2.8,6.3,6.3,6.3c3.5,0,6.3-2.8,6.3-6.3V8.8
					C30.9,5.3,28.1,2.5,24.6,2.5z"/>
			</g>
			<g>
				<path class="st0" d="M41.4,29.1h-2.5c0-1.8-1.1-3.5-2.7-4.2l-9.3-4h-4.5L13,24.8c-1.6,0.8-2.7,2.4-2.7,4.2H7.9
					c0-2.8,1.6-5.3,4.1-6.5l9.9-4.3h5.5l9.8,4.3C39.8,23.7,41.4,26.3,41.4,29.1z"/>
			</g>
		</g>
		<g>
			<polygon class="st0" points="26,9.2 17.1,9.2 17.1,6.7 24.9,6.7 26.9,4.5 28.7,6.2 			"/>
		</g>
		<g>
			<rect x="29.2" y="7.2" transform="matrix(0.6322 -0.7748 0.7748 0.6322 4.0317 26.9964)" class="st0" width="2.5" height="4.1"/>
		</g>
	</g>
</g>
</svg>
