<?xml version="1.0" encoding="utf-8"?>
<!-- Generator: Adobe Illustrator 23.0.5, SVG Export Plug-In . SVG Version: 6.00 Build 0)  -->
<svg version="1.1" id="Layer_1" xmlns="http://www.w3.org/2000/svg" xmlns:xlink="http://www.w3.org/1999/xlink" x="0px" y="0px"
	 viewBox="0 0 64.7 52" style="enable-background:new 0 0 64.7 52;" xml:space="preserve">
<style type="text/css">
	.st0{fill:#333;}
</style>
<g>
	<g>
		<g>
			<polygon class="st0" points="6.8,45.4 4.3,45.4 4.3,6.1 16.2,6.1 16.2,8.6 6.8,8.6 			"/>
		</g>
		<g>
			<polygon class="st0" points="60.4,45.4 57.9,45.4 57.9,8.6 48.7,8.6 48.7,6.1 60.4,6.1 			"/>
		</g>
		<g>
			<polygon class="st0" points="64.7,52 0,52 0,44.2 25.4,44.2 25.4,46.7 2.5,46.7 2.5,49.5 62.2,49.5 62.2,46.7 39.3,46.7 
				39.3,44.2 64.7,44.2 			"/>
		</g>
	</g>
	<g>
		<g>
			<path class="st0" d="M32.3,33.1l-9.7-9.7c-2.6-2.6-4-6-4-9.7s1.4-7.1,4-9.7c2.6-2.6,6-4,9.7-4C36,0,39.4,1.4,42,4
				c2.6,2.6,4,6,4,9.7s-1.4,7.1-4,9.7L32.3,33.1z M32.3,2.5c-3,0-5.8,1.2-7.9,3.3c-2.1,2.1-3.3,4.9-3.3,7.9c0,3,1.2,5.8,3.3,7.9
				l7.9,7.9l7.9-7.9c2.1-2.1,3.3-4.9,3.3-7.9c0-3-1.2-5.8-3.3-7.9C38.2,3.7,35.3,2.5,32.3,2.5z"/>
		</g>
		<g>
			<path class="st0" d="M39,19.8h-2.5v-0.9c0-2.3-1.9-4.2-4.2-4.2c-2.3,0-4.2,1.9-4.2,4.2v0.9h-2.5v-0.9c0-3.7,3-6.7,6.7-6.7
				c3.7,0,6.7,3,6.7,6.7V19.8z"/>
		</g>
		<g>
			<path class="st0" d="M32.3,14.7c-2.5,0-4.5-2-4.5-4.5s2-4.5,4.5-4.5c2.5,0,4.5,2,4.5,4.5S34.8,14.7,32.3,14.7z M32.3,8.2
				c-1.1,0-2,0.9-2,2s0.9,2,2,2c1.1,0,2-0.9,2-2S33.5,8.2,32.3,8.2z"/>
		</g>
	</g>
</g>
</svg>
