<?xml version="1.0" encoding="utf-8"?>
<!-- Generator: Adobe Illustrator 23.0.5, SVG Export Plug-In . SVG Version: 6.00 Build 0)  -->
<svg version="1.1" id="Layer_1" xmlns="http://www.w3.org/2000/svg" xmlns:xlink="http://www.w3.org/1999/xlink" x="0px" y="0px"
	 viewBox="0 0 56.7 51.6" style="enable-background:new 0 0 56.7 51.6;" xml:space="preserve">
<style type="text/css">
	.st0{fill:#333;}
</style>
<g>
	<g>
		<g>
			<path class="st0" d="M25.5,51.6C11.4,51.6,0,40.2,0,26.1C0,12.1,11.4,0.6,25.5,0.6c1.8,0,3.6,0.2,5.3,0.6l-0.5,2.4
				c-1.6-0.3-3.2-0.5-4.8-0.5c-12.7,0-23,10.3-23,23c0,12.7,10.3,23,23,23V51.6z"/>
		</g>
		<g>
			<path class="st0" d="M25.5,51.6c-8.4,0-14.9-11.2-14.9-25.5c0-14.3,6.5-25.5,14.9-25.5v2.5c-6.7,0-12.4,10.5-12.4,23
				c0,12.5,5.7,23,12.4,23V51.6z"/>
		</g>
		<g>
			<path class="st0" d="M25.5,16.8c-7.5,0-14.5-1.9-19.3-5.1l1.4-2.1c4.4,3,11,4.7,17.9,4.7V16.8z"/>
		</g>
		<g>
			<path class="st0" d="M43.4,42.7c-4.4-3-11-4.7-17.9-4.7c-7,0-13.5,1.7-17.9,4.7l-1.4-2.1c4.8-3.3,11.9-5.1,19.3-5.1
				c7.5,0,14.5,1.9,19.3,5.1L43.4,42.7z"/>
		</g>
		<g>
			<polygon class="st0" points="26.7,50.4 24.2,50.4 24.2,27.4 1.3,27.4 1.3,24.9 26.7,24.9 			"/>
		</g>
	</g>
	<g>
		<path class="st0" d="M25.5,51.6v-2.5c11.2,0,20.7-8,22.6-19l2.5,0.4C48.5,42.8,37.9,51.6,25.5,51.6z"/>
	</g>
	<g>
		<path class="st0" d="M25.5,51.6v-2.5c5.9,0,11.1-8.1,12.2-18.9l2.5,0.2C39,42.7,32.8,51.6,25.5,51.6z"/>
	</g>
	<g>
		<g>
			<path class="st0" d="M43,27.4H29.3V13.7c0-3.7,1.4-7.1,4-9.7c2.6-2.6,6-4,9.7-4c3.7,0,7.1,1.4,9.7,4c2.6,2.6,4,6,4,9.7
				c0,3.7-1.4,7.1-4,9.7C50.1,26,46.6,27.4,43,27.4z M31.8,24.9H43c3,0,5.8-1.2,7.9-3.3c2.1-2.1,3.3-4.9,3.3-7.9
				c0-3-1.2-5.8-3.3-7.9C48.8,3.7,46,2.5,43,2.5s-5.8,1.2-7.9,3.3c-2.1,2.1-3.3,4.9-3.3,7.9V24.9z"/>
		</g>
		<g>
			<g>
				<path class="st0" d="M49.6,20.6h-2.5v-0.9c0-2.3-1.9-4.2-4.2-4.2s-4.2,1.9-4.2,4.2v0.9h-2.5v-0.9c0-3.7,3-6.7,6.7-6.7
					s6.7,3,6.7,6.7V20.6z"/>
			</g>
			<g>
				<path class="st0" d="M42.9,15.5c-2.5,0-4.5-2-4.5-4.5s2-4.5,4.5-4.5c2.5,0,4.5,2,4.5,4.5S45.4,15.5,42.9,15.5z M42.9,9
					c-1.1,0-2,0.9-2,2s0.9,2,2,2s2-0.9,2-2S44,9,42.9,9z"/>
			</g>
		</g>
	</g>
</g>
</svg>
