<?xml version="1.0" encoding="utf-8"?>
<!-- Generator: Adobe Illustrator 23.0.5, SVG Export Plug-In . SVG Version: 6.00 Build 0)  -->
<svg version="1.1" id="Layer_1" xmlns="http://www.w3.org/2000/svg" xmlns:xlink="http://www.w3.org/1999/xlink" x="0px" y="0px"
	 viewBox="0 0 10.2 14.3" style="enable-background:new 0 0 10.2 14.3;" xml:space="preserve">
<style type="text/css">
	.st0{fill:#4D4D4D;}
</style>
<g>
	<path class="st0" d="M5.1,12.3c-0.2,0-0.3,0-0.4-0.1C4.5,12,0,8.8,0,5.1C0,2.3,2.3,0,5.1,0c2.8,0,5.1,2.3,5.1,5.1
		c0,3.8-4.5,6.9-4.7,7C5.4,12.2,5.3,12.3,5.1,12.3z M5.1,1.5c-2,0-3.6,1.6-3.6,3.6c0,2.2,2.3,4.5,3.6,5.5c1-0.8,3.6-3.1,3.6-5.5
		C8.7,3.1,7.1,1.5,5.1,1.5z"/>
	<circle class="st0" cx="5.1" cy="4.9" r="1.5"/>
	<path class="st0" d="M8.4,14.3H1.8c-0.4,0-0.8-0.3-0.8-0.8s0.3-0.8,0.8-0.8h6.6c0.4,0,0.8,0.3,0.8,0.8S8.8,14.3,8.4,14.3z"/>
</g>
</svg>
