<?xml version="1.0" encoding="utf-8"?>
<!-- Generator: Adobe Illustrator 23.0.5, SVG Export Plug-In . SVG Version: 6.00 Build 0)  -->
<svg version="1.1" id="Layer_1" xmlns="http://www.w3.org/2000/svg" xmlns:xlink="http://www.w3.org/1999/xlink" x="0px" y="0px"
	 viewBox="0 0 38.2 25.9" style="enable-background:new 0 0 38.2 25.9;" xml:space="preserve">
<style type="text/css">
	.st0{fill:none;stroke:#4D4D4D;stroke-width:1.5;stroke-linecap:round;stroke-linejoin:round;stroke-miterlimit:10;}
	.st1{fill:#4D4D4D;}
</style>
<g>
	<rect x="0.8" y="0.8" class="st0" width="36.7" height="24.4"/>
	<line class="st0" x1="0.8" y1="19" x2="37.5" y2="19"/>
	<g>
		<path class="st1" d="M6.4,8.7h1.6c0.7,0,1.2,0.1,1.5,0.3C9.8,9.3,10,9.6,10,10.2c0,0.3-0.1,0.6-0.3,0.8c-0.2,0.2-0.4,0.4-0.8,0.4
			v0c0.2,0,0.4,0.1,0.6,0.2c0.2,0.1,0.3,0.2,0.4,0.4c0.1,0.2,0.2,0.4,0.2,0.7c0,0.5-0.2,0.9-0.5,1.2c-0.3,0.3-0.8,0.4-1.4,0.4H6.4
			V8.7z M7.1,11.2h1c0.5,0,0.8-0.1,0.9-0.2c0.2-0.2,0.3-0.4,0.3-0.7c0-0.3-0.1-0.5-0.3-0.7c-0.2-0.1-0.5-0.2-1-0.2H7.1V11.2z
			 M7.1,11.8v2.1h1.1c0.5,0,0.8-0.1,1-0.3c0.2-0.2,0.3-0.5,0.3-0.8c0-0.3-0.1-0.5-0.3-0.7c-0.2-0.2-0.5-0.3-1-0.3H7.1z"/>
		<path class="st1" d="M14.7,14.5L14,12.7h-2.1l-0.6,1.8h-0.7l2.1-5.8h0.7l2.1,5.8H14.7z M13.8,12.1l-0.6-1.7c0,0,0-0.1-0.1-0.2
			c0-0.1-0.1-0.2-0.1-0.3C13,9.6,13,9.5,13,9.5c0,0.2-0.1,0.3-0.1,0.5c0,0.2-0.1,0.3-0.1,0.4l-0.6,1.7H13.8z"/>
		<path class="st1" d="M20.5,14.5h-0.8l-2.8-4.8h0c0,0.2,0,0.4,0,0.7c0,0.3,0,0.6,0,0.9v3.2h-0.7V8.7H17l2.8,4.8h0
			c0-0.1,0-0.2,0-0.4c0-0.2,0-0.4,0-0.6c0-0.2,0-0.4,0-0.6V8.7h0.7V14.5z"/>
		<path class="st1" d="M25.9,14.5h-0.8l-1.9-2.7l-0.5,0.5v2.2h-0.7V8.7h0.7v2.8c0.1-0.2,0.3-0.4,0.4-0.5c0.1-0.2,0.3-0.4,0.5-0.5
			L25,8.7h0.8l-2.1,2.5L25.9,14.5z"/>
	</g>
</g>
</svg>
