<?xml version="1.0" encoding="utf-8"?>
<!-- Generator: Adobe Illustrator 23.0.5, SVG Export Plug-In . SVG Version: 6.00 Build 0)  -->
<svg version="1.1" id="Layer_1" xmlns="http://www.w3.org/2000/svg" xmlns:xlink="http://www.w3.org/1999/xlink" x="0px" y="0px"
	 viewBox="0 0 29.8 33.5" style="enable-background:new 0 0 29.8 33.5;" xml:space="preserve">
<style type="text/css">
	.st0{fill:none;stroke:#4D4D4D;stroke-width:1.5;stroke-linecap:round;stroke-linejoin:round;stroke-miterlimit:10;}
</style>
<g>
	<g>
		<g>
			<path class="st0" d="M26.1,0.8c0,1.5-1.2,2.6-2.6,2.6s-2.6-1.2-2.6-2.6h-3.2c0,1.5-1.2,2.6-2.6,2.6s-2.6-1.2-2.6-2.6H9.2
				c0,1.5-1.2,2.6-2.6,2.6S3.9,2.2,3.9,0.8H0.8v32h3.2c0-1.5,1.2-2.6,2.6-2.6s2.6,1.2,2.6,2.6h3.2c0-1.5,1.2-2.6,2.6-2.6
				s2.6,1.2,2.6,2.6h3.2c0-1.5,1.2-2.6,2.6-2.6s2.6,1.2,2.6,2.6h3v-32H26.1z"/>
			<path class="st0" d="M17.6,0.8"/>
			<path class="st0" d="M12.4,0.8"/>
			<path class="st0" d="M12.4,0.8c0,1.5,1.2,2.6,2.6,2.6s2.6-1.2,2.6-2.6"/>
			<path class="st0" d="M26.1,0.8"/>
			<path class="st0" d="M20.8,0.8"/>
			<path class="st0" d="M20.8,0.8c0,1.5,1.2,2.6,2.6,2.6s2.6-1.2,2.6-2.6"/>
			<path class="st0" d="M9.2,0.8"/>
			<path class="st0" d="M3.9,0.8"/>
			<path class="st0" d="M3.9,0.8c0,1.5,1.2,2.6,2.6,2.6s2.6-1.2,2.6-2.6"/>
			<path class="st0" d="M12.4,32.8"/>
			<path class="st0" d="M17.6,32.8"/>
			<path class="st0" d="M17.6,32.8c0-1.5-1.2-2.6-2.6-2.6s-2.6,1.2-2.6,2.6"/>
			<path class="st0" d="M20.8,32.8"/>
			<path class="st0" d="M26.1,32.8"/>
			<path class="st0" d="M26.1,32.8c0-1.5-1.2-2.6-2.6-2.6s-2.6,1.2-2.6,2.6"/>
			<path class="st0" d="M3.9,32.8"/>
			<path class="st0" d="M9.2,32.8"/>
			<path class="st0" d="M9.2,32.8c0-1.5-1.2-2.6-2.6-2.6s-2.6,1.2-2.6,2.6"/>
		</g>
		<g>
			<line class="st0" x1="5.3" y1="8.8" x2="16.1" y2="8.8"/>
			<line class="st0" x1="19.1" y1="8.8" x2="24.9" y2="8.8"/>
		</g>
		<g>
			<line class="st0" x1="5.3" y1="11.8" x2="16.1" y2="11.8"/>
			<line class="st0" x1="19.1" y1="11.8" x2="24.9" y2="11.8"/>
		</g>
		<g>
			<line class="st0" x1="5.3" y1="14.9" x2="16.1" y2="14.9"/>
			<line class="st0" x1="19.1" y1="14.9" x2="24.9" y2="14.9"/>
		</g>
		<g>
			<line class="st0" x1="5.3" y1="18" x2="16.1" y2="18"/>
			<line class="st0" x1="19.1" y1="18" x2="24.9" y2="18"/>
		</g>
	</g>
	<g>
		<line class="st0" x1="16.9" y1="21.7" x2="18.5" y2="26.4"/>
		<line class="st0" x1="18.5" y1="26.4" x2="19.7" y2="22.7"/>
		<line class="st0" x1="19.7" y1="22.7" x2="21.1" y2="26.4"/>
		<line class="st0" x1="21.1" y1="26.4" x2="22.4" y2="21.7"/>
		<line class="st0" x1="16.5" y1="24" x2="23.1" y2="24"/>
	</g>
</g>
</svg>
