<?xml version="1.0" encoding="utf-8"?>
<!-- Generator: Adobe Illustrator 23.0.5, SVG Export Plug-In . SVG Version: 6.00 Build 0)  -->
<svg version="1.1" id="Layer_1" xmlns="http://www.w3.org/2000/svg" xmlns:xlink="http://www.w3.org/1999/xlink" x="0px" y="0px"
	 viewBox="0 0 16 16" style="enable-background:new 0 0 16 16;" xml:space="preserve">
<style type="text/css">
	.st0{fill:#1489E0;}
</style>
<path class="st0" d="M13.6,0H2.4C1.1,0,0,1.1,0,2.4v11.1C0,14.9,1.1,16,2.4,16h11.1c1.3,0,2.4-1.1,2.4-2.4V2.4C16,1.1,14.9,0,13.6,0
	z M11.4,12.7H9.6l-3-5.3C6.5,7.2,6.4,7,6.3,6.8C6.2,6.6,6.1,6.3,6.1,6.1v6.6H4.6V4h1.8l3,5.2c0.1,0.2,0.2,0.4,0.3,0.6
	s0.2,0.5,0.3,0.8V4h1.4V12.7z"/>
</svg>
