<?xml version="1.0" encoding="utf-8"?>
<!-- Generator: Adobe Illustrator 23.0.5, SVG Export Plug-In . SVG Version: 6.00 Build 0)  -->
<svg version="1.1" id="Layer_1" xmlns="http://www.w3.org/2000/svg" xmlns:xlink="http://www.w3.org/1999/xlink" x="0px" y="0px"
	 viewBox="0 0 64.5 56.5" style="enable-background:new 0 0 64.5 56.5;" xml:space="preserve">
<style type="text/css">
	.st0{fill:#FFFFFF;}
	.st1{fill:#2986CD;}
</style>
<path class="st0" d="M57.8,20.1c-0.4-6.3-5.6-11.4-12.1-11.4c-0.9,0-1.8,0.1-2.6,0.3c-2.6-5.3-8.1-9-14.4-9c-6.6,0-12.2,4-14.7,9.7
	c0,0-0.1,0-0.1,0c-7.7,0-14,6.3-14,14c0,7.7,6.3,14,14,14c0.3,0,0.9,0,0.9,0H26h0.4h1.2H32c0.1,0,0.2,0.1,0.2,0.2v6.6
	c0,0.9,0.7,1.6,1.6,1.6h2.6l-4.2,8.7L27.9,46h2.6c0.4,0,0.7-0.3,0.7-0.7c0-0.4-0.3-0.7-0.7-0.7h-0.4h-2.4c-0.3,0-0.6,0.1-0.9,0.3
	c-0.3,0.2-0.4,0.6-0.4,0.9c0,0.2,0.1,0.4,0.2,0.6l4.6,9.4c0.1,0.2,0.2,0.3,0.4,0.5c0.2,0.1,0.4,0.2,0.7,0.2c0.3,0,0.5-0.1,0.7-0.2
	c0.2-0.1,0.3-0.3,0.4-0.5l4.5-9.4c0.1-0.2,0.2-0.4,0.2-0.6c0-0.3-0.1-0.7-0.4-0.9c-0.3-0.2-0.6-0.3-0.9-0.3h-2.8l-0.1-0.1l-0.1-0.1
	v-6.6c0-0.3-0.1-0.6-0.3-0.9c-0.3-0.4-0.8-0.7-1.3-0.7h-4.4H26H14.9c0,0-0.6,0-0.9,0c-3.5,0-6.6-1.4-8.9-3.7
	c-2.3-2.3-3.7-5.4-3.7-8.9c0-3.5,1.4-6.6,3.7-8.9c2.3-2.3,5.4-3.7,8.9-3.7c0.1,0,0.3,0,0.5,0l0.5,0l0.2-0.5
	c2.1-5.4,7.4-9.3,13.6-9.3c6,0,11.1,3.6,13.4,8.7l0.2,0.5l0.6-0.2c0.9-0.2,1.8-0.4,2.8-0.4c5.9,0,10.6,4.7,10.7,10.6l0,0.6l0.6,0.1
	c3.5,0.7,6.1,3.7,6.1,7.4c0,2.1-0.8,4-2.2,5.3c-1.4,1.4-3.2,2.2-5.3,2.2H38.4c0,0,0,0,0,0h-2.2c-0.1,0-0.2-0.1-0.2-0.2v-6.6
	c0-0.9-0.7-1.6-1.6-1.6h-2.6l4.2-8.7l4.2,8.7h-2.5c-0.4,0-0.7,0.3-0.7,0.7c0,0.4,0.3,0.7,0.7,0.7h0.1h2.7c0.3,0,0.6-0.1,0.9-0.3
	c0.3-0.2,0.4-0.6,0.4-0.9c0-0.2-0.1-0.4-0.2-0.6L37,18.1c-0.1-0.2-0.2-0.3-0.4-0.5c-0.2-0.1-0.4-0.2-0.7-0.2c-0.3,0-0.5,0.1-0.7,0.2
	c-0.2,0.1-0.3,0.3-0.4,0.5l-4.5,9.4c-0.1,0.2-0.2,0.4-0.2,0.6c0,0.3,0.1,0.7,0.4,0.9c0.3,0.2,0.6,0.3,0.9,0.3h2.8
	c0.1,0,0.2,0.1,0.2,0.2v4.2V36c0,0.3,0.1,0.6,0.3,0.9c0.3,0.4,0.8,0.7,1.3,0.7h2.3c0,0,0,0,0,0h17.2c4.9,0,8.9-4,8.9-8.9
	C64.5,24.5,61.7,21.1,57.8,20.1z"/>
<path class="st1" d="M55.8,33.7c2.6,0,4.7-2.1,4.7-4.7c0-2.2-1.6-4.2-3.8-4.6L54.5,24l-0.7-0.1l0-0.7l0-2.2
	c-0.1-4.3-3.6-7.8-7.9-7.8c-0.7,0-1.3,0.1-2,0.3L41.6,14l-0.7,0.2l-0.3-0.7l-0.9-2.1c-1.9-4.3-6.1-7-10.8-7c-4.9,0-9.2,2.9-11,7.5
	l-0.7,1.8l-0.2,0.6l-0.6,0l-1.9-0.1l-0.3,0l-0.1,0l0,0c-5.4,0-9.8,4.4-9.8,9.7c0,5.4,4.4,9.8,9.8,9.8c0.1,0,0.3,0,0.4,0l0.1,0l0.1,0
	l0.3,0l0.1,0.1h19.6v-4.2c0-0.1-0.1-0.2-0.2-0.2h-2.8c-0.3,0-0.6-0.1-0.9-0.3c-0.3-0.2-0.4-0.6-0.4-0.9c0-0.2,0.1-0.4,0.2-0.6
	l4.5-9.4c0.1-0.2,0.2-0.3,0.4-0.5c0.2-0.1,0.4-0.2,0.7-0.2c0.3,0,0.5,0.1,0.7,0.2c0.2,0.1,0.3,0.3,0.4,0.5l4.6,9.4
	c0.1,0.2,0.2,0.4,0.2,0.6c0,0.3-0.1,0.7-0.4,0.9c-0.3,0.2-0.6,0.3-0.9,0.3h-2.7l0.4,4.4H55.8z M23.9,7.4L23.9,7.4l-0.1,0.1
	c-0.1,0.1-0.2,0.2-0.4,0.3C23,8.1,22.5,8.5,22,9.1c-1,1.1-2.2,2.6-2.7,4.4c-0.1,0.4-0.5,0.6-0.9,0.5c-0.4-0.1-0.6-0.5-0.5-0.9
	c0.6-2.1,1.9-3.8,3.1-5c1.1-1.2,2.1-1.8,2.1-1.8c0.3-0.2,0.8-0.1,1,0.2C24.3,6.8,24.2,7.2,23.9,7.4z M28.5,27c0,0.5-0.4,0.9-0.9,0.9
	c-0.5,0-0.9-0.4-0.9-0.9v-0.5c0-0.5,0.4-0.9,0.9-0.9c0.5,0,0.9,0.4,0.9,0.9V27z M28.5,23.5c0,0.5-0.4,0.9-0.9,0.9
	c-0.5,0-0.9-0.4-0.9-0.9V23c0-0.5,0.4-0.9,0.9-0.9c0.5,0,0.9,0.4,0.9,0.9V23.5z M28.5,20c0,0.5-0.4,0.9-0.9,0.9
	c-0.5,0-0.9-0.4-0.9-0.9v-0.5c0-0.5,0.4-0.9,0.9-0.9c0.5,0,0.9,0.4,0.9,0.9V20z M28.5,16.5c0,0.5-0.4,0.9-0.9,0.9
	c-0.5,0-0.9-0.4-0.9-0.9V16c0-0.5,0.4-0.9,0.9-0.9c0.5,0,0.9,0.4,0.9,0.9V16.5z M28.5,13c0,0.5-0.4,0.9-0.9,0.9
	c-0.5,0-0.9-0.4-0.9-0.9v-0.5c0-0.5,0.4-0.9,0.9-0.9c0.5,0,0.9,0.4,0.9,0.9V13z M28.5,9.5c0,0.5-0.4,0.9-0.9,0.9
	c-0.5,0-0.9-0.4-0.9-0.9V9c0-0.5,0.4-0.9,0.9-0.9c0.5,0,0.9,0.4,0.9,0.9V9.5z"/>
<path class="st0" d="M22.2,49.3c-0.5,0-0.9,0.4-0.9,0.9v0.5c0,0.5,0.4,0.9,0.9,0.9c0.5,0,0.9-0.4,0.9-0.9v-0.5
	C23.1,49.7,22.7,49.3,22.2,49.3z"/>
<path class="st0" d="M22.2,45.8c-0.5,0-0.9,0.4-0.9,0.9v0.5c0,0.5,0.4,0.9,0.9,0.9c0.5,0,0.9-0.4,0.9-0.9v-0.5
	C23.1,46.2,22.7,45.8,22.2,45.8z"/>
<path class="st0" d="M22.2,42.3c-0.5,0-0.9,0.4-0.9,0.9v0.5c0,0.5,0.4,0.9,0.9,0.9c0.5,0,0.9-0.4,0.9-0.9v-0.5
	C23.1,42.7,22.7,42.3,22.2,42.3z"/>
<path class="st0" d="M40.2,42.1c-0.5,0-0.9,0.4-0.9,0.9v0.5c0,0.5,0.4,0.9,0.9,0.9c0.5,0,0.9-0.4,0.9-0.9V43
	C41.1,42.5,40.7,42.1,40.2,42.1z"/>
<path class="st0" d="M40.2,49.1c-0.5,0-0.9,0.4-0.9,0.9v0.5c0,0.5,0.4,0.9,0.9,0.9c0.5,0,0.9-0.4,0.9-0.9V50
	C41.1,49.5,40.7,49.1,40.2,49.1z"/>
<path class="st0" d="M40.2,38.6c-0.5,0-0.9,0.4-0.9,0.9V40c0,0.5,0.4,0.9,0.9,0.9c0.5,0,0.9-0.4,0.9-0.9v-0.5
	C41.1,39,40.7,38.6,40.2,38.6z"/>
<path class="st0" d="M40.2,45.6c-0.5,0-0.9,0.4-0.9,0.9V47c0,0.5,0.4,0.9,0.9,0.9c0.5,0,0.9-0.4,0.9-0.9v-0.5
	C41.1,46,40.7,45.6,40.2,45.6z"/>
<path class="st0" d="M27.6,18.6c-0.5,0-0.9,0.4-0.9,0.9V20c0,0.5,0.4,0.9,0.9,0.9c0.5,0,0.9-0.4,0.9-0.9v-0.5
	C28.5,19,28.1,18.6,27.6,18.6z"/>
<path class="st0" d="M27.6,15.1c-0.5,0-0.9,0.4-0.9,0.9v0.5c0,0.5,0.4,0.9,0.9,0.9c0.5,0,0.9-0.4,0.9-0.9V16
	C28.5,15.5,28.1,15.1,27.6,15.1z"/>
<path class="st0" d="M27.6,8.1c-0.5,0-0.9,0.4-0.9,0.9v0.5c0,0.5,0.4,0.9,0.9,0.9c0.5,0,0.9-0.4,0.9-0.9V9
	C28.5,8.5,28.1,8.1,27.6,8.1z"/>
<path class="st0" d="M27.6,11.6c-0.5,0-0.9,0.4-0.9,0.9V13c0,0.5,0.4,0.9,0.9,0.9c0.5,0,0.9-0.4,0.9-0.9v-0.5
	C28.5,12,28.1,11.6,27.6,11.6z"/>
<path class="st0" d="M27.6,25.6c-0.5,0-0.9,0.4-0.9,0.9V27c0,0.5,0.4,0.9,0.9,0.9c0.5,0,0.9-0.4,0.9-0.9v-0.5
	C28.5,26,28.1,25.6,27.6,25.6z"/>
<path class="st0" d="M27.6,22.1c-0.5,0-0.9,0.4-0.9,0.9v0.5c0,0.5,0.4,0.9,0.9,0.9c0.5,0,0.9-0.4,0.9-0.9V23
	C28.5,22.5,28.1,22.1,27.6,22.1z"/>
<path class="st0" d="M23.1,6.2c0,0-1,0.7-2.1,1.8c-1.1,1.2-2.4,2.9-3.1,5c-0.1,0.4,0.1,0.8,0.5,0.9c0.4,0.1,0.8-0.1,0.9-0.5
	c0.5-1.8,1.7-3.3,2.7-4.4c0.5-0.5,1-1,1.4-1.2c0.2-0.1,0.3-0.2,0.4-0.3l0.1-0.1l0,0c0.3-0.2,0.4-0.6,0.2-1C23.9,6.1,23.4,6,23.1,6.2
	z"/>
</svg>
