<?xml version="1.0" encoding="utf-8"?>
<!-- Generator: Adobe Illustrator 23.0.5, SVG Export Plug-In . SVG Version: 6.00 Build 0)  -->
<svg version="1.1" id="Layer_1" xmlns="http://www.w3.org/2000/svg" xmlns:xlink="http://www.w3.org/1999/xlink" x="0px" y="0px"
	 viewBox="0 0 760 197" style="enable-background:new 0 0 760 197;" xml:space="preserve">
<style type="text/css">
	.st0{fill:#FFFCF0;}
	.st1{fill:url(#SVGID_1_);}
</style>
<g>
	<path class="st0" d="M661.5,0l-563,0C44.1,0,0,44.1,0,98.5v0C0,152.9,44.1,197,98.5,197h563c54.4,0,98.5-44.1,98.5-98.5v0
		C760,44.1,715.9,0,661.5,0z"/>
	<linearGradient id="SVGID_1_" gradientUnits="userSpaceOnUse" x1="260.3667" y1="-108.7109" x2="499.6333" y2="305.7109">
		<stop  offset="1.198083e-07" style="stop-color:#FBF4A2"/>
		<stop  offset="0.3767" style="stop-color:#FBF2A2"/>
		<stop  offset="0.5124" style="stop-color:#FAECA1"/>
		<stop  offset="0.6091" style="stop-color:#F9E3A0"/>
		<stop  offset="0.6873" style="stop-color:#F8D89F"/>
		<stop  offset="0.7544" style="stop-color:#F6C89D"/>
		<stop  offset="0.8137" style="stop-color:#F4B499"/>
		<stop  offset="0.8674" style="stop-color:#F29C94"/>
		<stop  offset="0.9167" style="stop-color:#F0828E"/>
		<stop  offset="0.9606" style="stop-color:#EE6085"/>
		<stop  offset="1" style="stop-color:#ED2B7B"/>
	</linearGradient>
	<path class="st1" d="M661.5,26c40,0,72.5,32.5,72.5,72.5c0,40-32.5,72.5-72.5,72.5h-563c-40,0-72.5-32.5-72.5-72.5
		C26,58.5,58.5,26,98.5,26H661.5 M661.5,0h-563C44.1,0,0,44.1,0,98.5v0C0,152.9,44.1,197,98.5,197h563c54.4,0,98.5-44.1,98.5-98.5v0
		C760,44.1,715.9,0,661.5,0L661.5,0z"/>
</g>
</svg>
