<?xml version="1.0" encoding="utf-8"?>
<!-- Generator: Adobe Illustrator 23.0.5, SVG Export Plug-In . SVG Version: 6.00 Build 0)  -->
<svg version="1.1" id="Layer_1" xmlns="http://www.w3.org/2000/svg" xmlns:xlink="http://www.w3.org/1999/xlink" x="0px" y="0px"
	 viewBox="0 0 100 135.2" style="enable-background:new 0 0 100 135.2;" xml:space="preserve">
<style type="text/css">
	.st0{fill:#FFFFFF;}
	.st1{opacity:0.26;fill:#FFFFFF;}
</style>
<path class="st0" d="M6.3,115.5c0,0.6,0,1.2,0,1.8c0,1.3,1.1,2.3,2.4,2.3h0.1c1.3,0,2.4-1.1,2.3-2.5c0-0.6,0-1.1,0-1.7
	C11.1,94,22.5,76,37.9,69.8c0.9-0.4,1.5-1.2,1.5-2.2s-0.6-1.9-1.5-2.2c-15.3-6.2-26.8-24.2-26.8-45.7c0-0.5,0-1.1,0-1.7
	c0-1.3-1-2.4-2.3-2.5c-1.3,0-2.4,1-2.5,2.3c0,0.6,0,1.1,0,1.8c0,21.1,10.2,39.4,25.2,47.9C16.5,76.1,6.3,94.4,6.3,115.5z"/>
<path class="st0" d="M62.1,65.4c-0.9,0.4-1.5,1.2-1.5,2.2s0.6,1.8,1.5,2.2C77.5,76,88.9,94,88.9,115.5c0,0.5,0,1.1,0,1.7
	c0,1.3,1,2.4,2.3,2.5c0,0,0,0,0.1,0c1.3,0,2.4-1,2.4-2.3l0,0c0-0.6,0-1.2,0-1.8c0-21.1-10.2-39.4-25.2-47.9
	c15-8.5,25.2-26.8,25.2-47.9c0-0.6,0-1.2,0-1.8c0-1.3-1.1-2.4-2.5-2.3c-1.3,0-2.4,1.1-2.3,2.5c0,0.6,0,1.1,0,1.7
	C88.9,41.2,77.5,59.2,62.1,65.4z"/>
<path class="st0" d="M50.7,60.3c0.3,1.1,1.2,1.8,2.3,1.8c0.2,0,0.4,0,0.6-0.1c1.3-0.3,2-1.5,1.8-2.8v-0.1c0.1-0.5-0.1-1.8,3-3.7
	c7.9-3.7,13.6-12.3,15.2-22.5c0.2-1.3-0.7-2.5-2-2.7s-2.5,0.7-2.7,2c-1.4,9-6.4,16.2-12.5,19L56,51.3c-4.4,2.5-5.5,6.1-5.4,7.9
	C50.6,59.8,50.7,60.2,50.7,60.3z"/>
<path class="st0" d="M43.8,84l0.2-0.1c4.4-2.5,5.5-6.1,5.4-7.9c0-0.6-0.1-1-0.1-1.1c-0.3-1.3-1.6-2.1-2.9-1.8
	c-1.3,0.3-2.1,1.5-1.8,2.8V76c-0.1,0.5,0,1.8-3,3.7C33.7,83.4,28,92,26.5,102.2c-0.1,0.7,0.1,1.4,0.5,1.9c0.5,0.5,1.1,0.8,1.8,0.8
	H71c0.7,0,1.4-0.3,1.8-0.8c0.5-0.5,0.7-1.2,0.6-1.9c-1.6-10.6-7.6-19.3-15.8-22.8c-2.5-1.7-2.4-3-2.5-3.4l0,0
	c0.3-1.3-0.5-2.6-1.8-2.9s-2.6,0.5-2.9,1.8c0,0.2-0.1,0.6-0.1,1.1c-0.1,1.7,0.9,5.1,4.8,7.5l0.4,0.2c5.8,2.3,10.6,8.5,12.6,16.5
	H31.8C33.7,92.5,38.3,86.5,43.8,84z"/>
<path class="st0" d="M31.3,32.2c-0.2-1.3-1.4-2.2-2.7-2c-1.3,0.2-2.2,1.4-2,2.7l0,0c1.6,10.6,7.6,19.3,15.8,22.8
	c2.5,1.7,2.4,3,2.5,3.4c0,0.1,0,0.1,0,0.1l0,0c-0.2,1.3,0.6,2.5,1.8,2.8c0.2,0,0.4,0.1,0.5,0.1c1.1,0,2.1-0.7,2.3-1.9
	c0-0.1,0.1-0.5,0.1-1.1c0.1-1.7-0.9-5.1-4.8-7.5l-0.4-0.2C38,48.9,32.7,41.6,31.3,32.2z"/>
<path class="st0" d="M93.3,0H6.7C3,0,0,3,0,6.7v0.6C0,11,3,14,6.7,14h86.6c3.7,0,6.7-3,6.7-6.7V6.7C100,3,97,0,93.3,0z M95.2,7.3
	c0,1.1-0.9,1.9-1.9,1.9h-0.8H6.7c-1.1,0-1.9-0.9-1.9-1.9V6.7c0-1.1,0.9-1.9,1.9-1.9h86.6c1.1,0,1.9,0.9,1.9,1.9V7.3z"/>
<path class="st1" d="M93.3,4.8H6.7c-1,0-1.9,0.8-1.9,1.9v0.6c0,1,0.8,1.9,1.9,1.9h85.8h0.8c1,0,1.9-0.8,1.9-1.9V6.7
	C95.2,5.7,94.4,4.8,93.3,4.8z"/>
<path class="st0" d="M93.3,121.2H6.7c-3.7,0-6.7,3-6.7,6.7v0.6c0,3.7,3,6.7,6.7,6.7h86.6c3.7,0,6.7-3,6.7-6.7v-0.6
	C100,124.2,97,121.2,93.3,121.2z M95.2,128.5c0,1.1-0.9,1.9-1.9,1.9H6.7c-1.1,0-1.9-0.9-1.9-1.9v-0.6c0-1.1,0.9-1.9,1.9-1.9h86.6
	c1.1,0,1.9,0.9,1.9,1.9V128.5z"/>
<path class="st1" d="M93.3,126H6.7c-1,0-1.9,0.8-1.9,1.9v0.6c0,1,0.8,1.9,1.9,1.9h86.6c1,0,1.9-0.8,1.9-1.9v-0.6
	C95.2,126.9,94.4,126,93.3,126z"/>
<path class="st0" d="M18.3,109.5c-1.3,0-2.4,1.1-2.4,2.4s1.1,2.4,2.4,2.4h63.5c1.3,0,2.4-1.1,2.4-2.4s-1.1-2.4-2.4-2.4H18.3z"/>
<path class="st0" d="M46,42.5V28.1c0-1.3-1.1-2.4-2.4-2.4c-1.3,0-2.4,1.1-2.4,2.4v14.5c0,1.3,1.1,2.4,2.4,2.4
	C45,44.9,46,43.9,46,42.5z"/>
<path class="st0" d="M56.9,43.8V32.9c0-1.3-1.1-2.4-2.4-2.4c-1.3,0-2.4,1.1-2.4,2.4v10.9c0,1.3,1.1,2.4,2.4,2.4
	C55.8,46.1,56.9,45.1,56.9,43.8z"/>
</svg>
