<?xml version="1.0" encoding="utf-8"?>
<!-- Generator: Adobe Illustrator 23.0.5, SVG Export Plug-In . SVG Version: 6.00 Build 0)  -->
<svg version="1.1" id="Layer_1" xmlns="http://www.w3.org/2000/svg" xmlns:xlink="http://www.w3.org/1999/xlink" x="0px" y="0px"
	 viewBox="0 0 90.8 56.8" style="enable-background:new 0 0 90.8 56.8;" xml:space="preserve">
<style type="text/css">
	.st0{fill:#FFFFFF;}
	.st1{fill:#2986CD;}
</style>
<path class="st0" d="M56,8.4c0.2,0.2,0.4,0.4,0.6,0.7C56.4,8.8,56.2,8.6,56,8.4z"/>
<path class="st0" d="M52.8,45.4c-3.9,2.7-8.6,4.3-13.7,4.3c-6.7,0-12.7-2.7-17.1-7.1c-4.4-4.4-7.1-10.4-7.1-17.1
	c0-6.7,2.7-12.7,7.1-17.1c0.9-0.9,1.9-1.7,2.9-2.5c2.3-1.7,4.9-3,7.7-3.9l0.1,0.1c0,0,0,0,0,0.1c2-0.6,4.2-0.9,6.4-0.9
	c3.6,0,7.1,0.8,10.1,2.2c0.1,0,0.1-0.1,0.1-0.1C51.8,4.8,54,6.4,56,8.4c0.2,0.2,0.4,0.4,0.6,0.7c0.2,0.2,0.3,0.4,0.5,0.5
	c3.5,4,5.8,9.2,6,14.9c0,0.3,0.2,0.5,0.4,0.6c0.1,0.1,0.2,0.1,0.3,0.1c0.4,0,0.7-0.3,0.7-0.7C64,10.8,52.7,0,39,0
	C24.9,0,13.4,11.4,13.4,25.6c0,7.8,3.5,14.8,9,19.4c-0.3,0.2-0.4,0.6-0.3,0.9c0.1,0.5,0.6,0.8,1.1,0.6c0.2,0,0.3-0.1,0.5-0.1
	c0.1,0,0.2-0.1,0.3-0.2c4.2,3,9.4,4.9,15,4.9c5.4,0,10.4-1.7,14.5-4.5c0.3-0.2,0.4-0.7,0.2-1c-0.1-0.1-0.2-0.2-0.3-0.2
	C53.2,45.3,53,45.3,52.8,45.4z"/>
<path class="st0" d="M68.7,41.2c-0.4-0.2-0.8,0-0.9,0.3l-0.3,0.6l-5.4,11.7c-0.1,0.1-0.2,0.3-0.4,0.5c-0.2,0.2-0.4,0.3-0.6,0.3
	l-2.5,0.7l0,0l0,0v0l0.7-10.4c0-0.1,0-0.2,0-0.3c-0.1-0.3-0.3-0.5-0.6-0.5c-0.4,0-0.7,0.3-0.7,0.7l-0.7,10.4l0,0l0,0.1
	c0,0.4,0.1,0.7,0.4,1c0.3,0.3,0.6,0.4,1,0.4c0.1,0,0.3,0,0.4-0.1l2.5-0.7l0,0c0.4-0.1,0.7-0.3,1.1-0.6c0.3-0.3,0.6-0.6,0.8-0.9l0,0
	l5.7-12.3C69.2,41.8,69.1,41.4,68.7,41.2z"/>
<path class="st1" d="M61.2,18c0.2-0.1,0.4-0.3,0.6-0.4c-1-3-2.7-5.7-4.7-8c-0.2-0.2-0.3-0.4-0.5-0.5c-0.2-0.2-0.4-0.4-0.6-0.7
	c-1.9-2-4.2-3.6-6.7-4.8c0,0-0.1,0-0.1,0.1c-0.7,0.4-2.5,1.9-2.8,6.9c-0.1,0.9-2.5,0.9-2.6,1.7c0,1,0.4,1.7,0.3,2.5
	c-0.1,1-1.2,1-1.5,1.8c-0.5,1.1,0.5,0.8,1,1.5c0.6,0.8-0.1,1.7,0.2,2.5c0.2,0.8,1.1,0.8,1.9,1.2c0.3,0.1,1.3,1.2,1.7,1.4
	c0.3,0.1,0.5,0.1,0.8,0l-1.6-2.3c-0.2-0.3-0.3-0.5-0.3-0.9c0-0.3,0.1-0.6,0.3-0.8c0.2-0.2,0.5-0.4,0.8-0.5l0,0l2.6-0.7l0,0
	c0.2-0.1,0.5-0.1,0.7-0.1c0.6,0,1.2,0.1,1.7,0.4l0,0l8.8,5.9c-0.4-1.2-2.1-2.2-2.5-3.2C57.6,19.1,60.2,18.5,61.2,18z"/>
<path class="st0" d="M90.7,29.1c-0.2-0.6-0.6-1.1-1-1.5c-0.7-0.6-1.7-0.9-2.7-1.2c-1-0.2-2.2-0.3-3.3-0.3c-1.9,0-3.7,0.2-5,0.6
	l0.2,0.7l-0.2-0.7l-9.9,2.8l-5.5-3.7l-2.4-1.6L52,18.3l0,0c-0.5-0.3-1.1-0.4-1.7-0.4c-0.2,0-0.5,0-0.7,0.1l0,0l-2.6,0.7l0,0
	c-0.3,0.1-0.6,0.2-0.8,0.5c-0.2,0.2-0.3,0.5-0.3,0.8c0,0.3,0.1,0.6,0.3,0.9l1.6,2.3l7.1,10.1l-12.3,3.4L34.5,32l0,0
	c-0.5-0.3-1-0.4-1.6-0.4c-0.2,0-0.5,0-0.7,0.1l0,0l-0.8,0.2h0c-0.3,0.1-0.5,0.2-0.7,0.5c-0.2,0.2-0.3,0.5-0.3,0.8
	c0,0.3,0.1,0.6,0.3,0.8l0,0l7.8,11.5l0.1-0.1c0.4,0.4,0.9,0.8,1.4,1.1c0.8,0.4,1.7,0.6,2.7,0.6c0.7,0,1.5-0.1,2.2-0.3l9.1-2.5
	l27.3-7.6c1.5-0.4,3.7-1.2,5.7-2.4c1-0.6,1.9-1.2,2.5-1.9c0.7-0.7,1.2-1.5,1.2-2.5C90.8,29.6,90.7,29.4,90.7,29.1z M78.9,28.1
	L78.9,28.1c1.1-0.3,2.8-0.5,4.6-0.5c1.4,0,2.8,0.2,3.9,0.5c0.5,0.2,1,0.4,1.3,0.6c0.3,0.3,0.5,0.5,0.6,0.8c0,0.1,0,0.2,0,0.3
	c0,0.4-0.3,1-0.8,1.5c-0.8,0.9-2.2,1.7-3.6,2.4c-1.4,0.7-2.9,1.2-4,1.5L44.5,45.5c-0.6,0.2-1.3,0.3-1.9,0.3c-0.8,0-1.5-0.2-2.1-0.4
	C40,45,39.5,44.6,39.1,44l-0.5-0.9l0,0l-6.7-9.8l0.8-0.2l0,0c0.1,0,0.2,0,0.3,0c0.3,0,0.7,0.1,0.9,0.2l0,0l8.8,5l14.8-4.1L47.5,20
	l0,0l0,0l0,0l2.5-0.7l0,0c0.1,0,0.2,0,0.3,0c0.3,0,0.8,0.1,0.9,0.2L68.4,31L78.9,28.1z"/>
<path class="st0" d="M79,31.8c0.6-0.2,0.9-0.8,0.8-1.3c-0.2-0.6-0.8-0.9-1.3-0.8c-0.6,0.2-0.9,0.8-0.8,1.3
	C77.8,31.6,78.4,31.9,79,31.8z"/>
<path class="st0" d="M74.9,32.9c0.6-0.2,0.9-0.8,0.8-1.3c-0.2-0.6-0.8-0.9-1.3-0.8c-0.6,0.2-0.9,0.8-0.8,1.3
	C73.7,32.7,74.3,33.1,74.9,32.9z"/>
<path class="st0" d="M70.8,34c0.6-0.2,0.9-0.8,0.8-1.3c-0.2-0.6-0.8-0.9-1.3-0.8c-0.6,0.2-0.9,0.8-0.8,1.3
	C69.7,33.9,70.3,34.2,70.8,34z"/>
<path class="st0" d="M66.2,33.1c-0.6,0.2-0.9,0.8-0.8,1.3c0.2,0.6,0.8,0.9,1.3,0.8c0.6-0.2,0.9-0.8,0.8-1.3
	C67.4,33.3,66.7,32.9,66.2,33.1z"/>
<path class="st0" d="M62.1,34.2c-0.6,0.2-0.9,0.8-0.8,1.3c0.2,0.6,0.8,0.9,1.3,0.8c0.6-0.2,0.9-0.8,0.8-1.3
	C63.3,34.4,62.7,34.1,62.1,34.2z"/>
<path class="st0" d="M58,35.4c-0.6,0.2-0.9,0.8-0.8,1.3c0.2,0.6,0.8,0.9,1.3,0.8c0.6-0.2,0.9-0.8,0.8-1.3
	C59.2,35.5,58.6,35.2,58,35.4z"/>
<path class="st0" d="M55.3,37.3c-0.2-0.6-0.8-0.9-1.3-0.8c-0.6,0.2-0.9,0.8-0.8,1.3c0.2,0.6,0.8,0.9,1.3,0.8
	C55.1,38.4,55.4,37.8,55.3,37.3z"/>
<path class="st0" d="M49.8,37.6c-0.6,0.2-0.9,0.8-0.8,1.3c0.2,0.6,0.8,0.9,1.3,0.8c0.6-0.2,0.9-0.8,0.8-1.3
	C51,37.8,50.4,37.5,49.8,37.6z"/>
<path class="st0" d="M6.4,46c-0.2,0-0.3-0.1-0.5-0.1c-0.5-0.1-1,0.1-1.1,0.6c-0.1,0.5,0.1,1,0.6,1.1c0.2,0,0.3,0.1,0.5,0.1
	c0.5,0.1,1-0.2,1.1-0.7C7.2,46.6,6.9,46.1,6.4,46z"/>
<path class="st0" d="M4.7,35.6c-0.3-0.4-0.9-0.4-1.3,0c-0.1,0.1-0.3,0.2-0.4,0.4c-0.3,0.4-0.3,0.9,0,1.3c0.4,0.3,0.9,0.3,1.3,0
	c0.1-0.1,0.2-0.2,0.3-0.3C5.1,36.6,5.1,36,4.7,35.6z"/>
<path class="st0" d="M3.1,44.5c-0.4-0.3-1-0.2-1.3,0.1c-0.3,0.4-0.2,1,0.1,1.3c0.1,0.1,0.3,0.2,0.5,0.3c0.4,0.3,1,0.2,1.2-0.2
	c0.3-0.4,0.2-1-0.2-1.2C3.3,44.7,3.2,44.6,3.1,44.5z"/>
<path class="st0" d="M9.7,46.4c-0.2,0-0.3,0-0.5,0c-0.5,0-0.9,0.3-1,0.8c0,0.5,0.3,0.9,0.8,1c0.2,0,0.3,0,0.5,0c0.5,0,0.9-0.3,1-0.8
	C10.6,46.9,10.2,46.5,9.7,46.4z"/>
<path class="st0" d="M1.8,42.2c0-0.5-0.5-0.9-1-0.8c-0.5,0-0.9,0.5-0.8,1c0,0.2,0,0.4,0.1,0.6c0.1,0.5,0.6,0.8,1.1,0.7
	s0.8-0.6,0.7-1.1C1.8,42.5,1.8,42.3,1.8,42.2z"/>
<path class="st0" d="M19.9,45.5c-0.2,0-0.3,0.1-0.5,0.1c-0.5,0.1-0.8,0.6-0.7,1.1c0.1,0.5,0.6,0.8,1.1,0.7c0.2,0,0.3-0.1,0.5-0.1
	c0.5-0.1,0.8-0.6,0.7-1.1C20.8,45.8,20.4,45.4,19.9,45.5z"/>
<path class="st0" d="M6.2,33.3c-0.1,0.1-0.3,0.2-0.4,0.3c-0.4,0.3-0.5,0.9-0.2,1.3c0.3,0.4,0.9,0.5,1.3,0.2c0.1-0.1,0.3-0.2,0.4-0.3
	c0.4-0.3,0.5-0.9,0.2-1.3C7.2,33.1,6.6,33,6.2,33.3z"/>
<path class="st0" d="M16.5,46.1c-0.2,0-0.3,0-0.5,0.1c-0.5,0.1-0.8,0.5-0.8,1c0.1,0.5,0.5,0.8,1,0.8c0.2,0,0.3,0,0.5-0.1
	c0.5-0.1,0.8-0.5,0.8-1C17.4,46.4,17,46.1,16.5,46.1z"/>
<path class="st0" d="M9.3,31.3c-0.1,0.1-0.3,0.2-0.4,0.3c-0.4,0.3-0.6,0.8-0.3,1.2c0.3,0.4,0.8,0.6,1.2,0.3c0.1-0.1,0.3-0.2,0.4-0.2
	c0.4-0.2,0.6-0.8,0.3-1.2C10.2,31.2,9.7,31.1,9.3,31.3z"/>
<path class="st0" d="M1.2,40.2c0.4,0.2,1,0.1,1.2-0.4c0.1-0.1,0.1-0.3,0.2-0.4c0.3-0.4,0.1-1-0.3-1.2c-0.4-0.3-1-0.1-1.2,0.3
	C1,38.6,0.9,38.8,0.8,39C0.6,39.4,0.8,40,1.2,40.2z"/>
<path class="st0" d="M13.1,46.5c-0.2,0-0.3,0-0.5,0c-0.5,0-0.9,0.4-0.9,0.9c0,0.5,0.4,0.9,0.9,0.9c0.2,0,0.3,0,0.5,0
	c0.5,0,0.9-0.4,0.9-0.9C14,46.8,13.6,46.4,13.1,46.5z"/>
<path class="st0" d="M12.8,31.5c0.1-0.1,0.3-0.1,0.4-0.2c0.4-0.2,0.6-0.8,0.4-1.2c-0.2-0.4-0.8-0.6-1.2-0.4
	c-0.2,0.1-0.3,0.1-0.5,0.2c-0.4,0.2-0.6,0.8-0.4,1.2C11.8,31.6,12.3,31.7,12.8,31.5z"/>
<path class="st0" d="M26.5,43.7c-0.2,0.1-0.3,0.1-0.5,0.2c-0.5,0.2-0.7,0.7-0.6,1.1c0.2,0.5,0.7,0.7,1.1,0.6
	c0.2-0.1,0.3-0.1,0.5-0.2c0.5-0.2,0.7-0.7,0.6-1.1C27.5,43.8,27,43.5,26.5,43.7z"/>
<path class="st0" d="M32.8,41c-0.1,0.1-0.3,0.1-0.4,0.2c-0.4,0.2-0.6,0.8-0.4,1.2c0.2,0.4,0.8,0.6,1.2,0.4c0.2-0.1,0.3-0.2,0.5-0.2
	c0.4-0.2,0.6-0.8,0.4-1.2C33.8,40.9,33.2,40.7,32.8,41z"/>
<path class="st0" d="M29.7,42.4L29.7,42.4c-0.1,0.1-0.3,0.1-0.5,0.2c-0.5,0.2-0.7,0.7-0.5,1.2c0.2,0.5,0.7,0.7,1.2,0.5
	c0.2-0.1,0.3-0.1,0.5-0.2c0.5-0.2,0.7-0.7,0.5-1.2C30.7,42.4,30.2,42.2,29.7,42.4z"/>
<path class="st1" d="M32.5,2.1C29.7,3,27.1,4.3,24.8,6c-3.1,2.3-5.7,5.4-7.5,9c0.5,0.9,1,2.3,2.4,1.9c1.3-0.4,0.8-2,1.5-2.8
	c0.6-0.6,3-0.2,2.3-1.7c-0.3-0.6-0.9-0.4-0.7-1.2c0.1-0.5,0.6-1,1-1.3c0.8-0.7,2.2-0.9,3.3-0.6c1.1,0.4,1.4,1.5,2.8,1.3
	c0.3-0.1,1.5-0.1,1.6-0.5c0.1-0.4-0.7-1-0.9-1.4c-0.5-1.2-0.1-2.3,0.6-3.2c0.7-0.3,1.8-0.2,2-1c0.2-0.9-0.4-1.6-0.8-2.2
	C32.6,2.2,32.6,2.2,32.5,2.1L32.5,2.1z"/>
</svg>
