<?xml version="1.0" encoding="utf-8"?>
<!-- Generator: Adobe Illustrator 23.0.5, SVG Export Plug-In . SVG Version: 6.00 Build 0)  -->
<svg version="1.1" id="Layer_1" xmlns="http://www.w3.org/2000/svg" xmlns:xlink="http://www.w3.org/1999/xlink" x="0px" y="0px"
	 viewBox="0 0 170 170" style="enable-background:new 0 0 170 170;" xml:space="preserve">
<style type="text/css">
	.st0{fill:#8E8E8E;}
	.st1{fill:#ED297B;}
	.st2{fill:#FFFFFF;}
</style>
<path class="st0" d="M46.6,170C20.9,170,0,149.1,0,123.4c0-16.9,9.2-32.6,24.1-40.8l0.6-0.3h43.9l0.6,0.3
	c11.2,6.2,19.4,16.8,22.6,29.1l-5.3,1.4c-2.7-10.7-9.8-19.9-19.3-25.4h-41c-12.7,7.3-20.6,20.9-20.6,35.6
	c0,22.7,18.4,41.1,41.1,41.1c3.1,0,6.2-0.4,9.4-1.1l1.3,5.3C53.7,169.6,50.1,170,46.6,170z"/>
<path class="st0" d="M52.1,150.8h-11c-7.6,0-13.7-6.2-13.7-13.7v-2.2h5.5v2.2c0,4.5,3.7,8.2,8.2,8.2h11c2.3,0,4.5-1,6.1-2.7l4,3.7
	C59.6,149.2,55.9,150.8,52.1,150.8z"/>
<path class="st0" d="M54,129.1c-0.6-0.1-1.2-0.2-1.9-0.2h-11c-7.6,0-13.7-6.2-13.7-13.7s6.2-13.7,13.7-13.7h11
	c6.1,0,11.5,4.1,13.2,10l-5.3,1.5c-1-3.5-4.2-6-7.9-6h-11c-4.5,0-8.2,3.7-8.2,8.2c0,4.5,3.7,8.2,8.2,8.2h11c1.1,0,2.1,0.1,3.1,0.4
	L54,129.1z"/>
<rect x="43.9" y="93.2" class="st0" width="5.5" height="11"/>
<rect x="43.9" y="148.1" class="st0" width="5.5" height="11"/>
<path class="st0" d="M76.8,57.2l-4.5-3.6c-2.8-2.2-6.1-3.6-9.6-4.1l-2.5-0.3l0.1-2.8c0.1-4.5,3.7-8.1,8.2-8.1c4.5,0,8.2,3.7,8.2,8.2
	V57.2z M66.6,44.7c1.6,0.4,3.2,1,4.7,1.8c-0.1-1.4-1.3-2.6-2.7-2.6C67.8,43.9,67.1,44.2,66.6,44.7z"/>
<path class="st0" d="M63.9,76.8H29.3l-0.7-0.5c-7.7-5.8-12.1-14.6-12.1-24.1v-5.5c0-4.5,3.7-8.2,8.2-8.2c4.5,0,8.2,3.7,8.2,8.2
	c0,1.5,1.2,2.7,2.7,2.7c1.5,0,2.7-1.2,2.7-2.7c0-4.5,3.7-8.2,8.2-8.2c4.5,0,8.2,3.7,8.2,8.2c0,1.5,1.2,2.7,2.7,2.7
	c0.7,0,1.3-0.3,1.6-0.5l3.4-2.5l0.9,4.1c1,5.1,4.2,9.6,8.6,12.4l2.2,1.4l-1.2,2.3c-2.1,3.8-5,7.2-8.4,9.7L63.9,76.8z M31.2,71.3
	h30.9c1.9-1.5,3.5-3.3,4.9-5.3c-3.7-2.9-6.5-6.8-8-11.2c-0.4,0.1-0.9,0.1-1.4,0.1c-4.5,0-8.2-3.7-8.2-8.2c0-1.5-1.2-2.7-2.7-2.7
	c-1.5,0-2.7,1.2-2.7,2.7c0,4.5-3.7,8.2-8.2,8.2c-4.5,0-8.2-3.7-8.2-8.2c0-1.5-1.2-2.7-2.7-2.7c-1.5,0-2.7,1.2-2.7,2.7v5.5
	C21.9,59.6,25.3,66.6,31.2,71.3z"/>
<path class="st0" d="M68.5,87.7H24.7c-4.5,0-8.2-3.7-8.2-8.2c0-4.5,3.7-8.2,8.2-8.2h43.9c4.5,0,8.2,3.7,8.2,8.2
	C76.8,84.1,73.1,87.7,68.5,87.7z M24.7,76.8c-1.5,0-2.7,1.2-2.7,2.7s1.2,2.7,2.7,2.7h43.9c1.5,0,2.7-1.2,2.7-2.7s-1.2-2.7-2.7-2.7
	H24.7z"/>
<rect x="96" y="46.6" class="st0" width="5.5" height="65.8"/>
<path class="st1" d="M98.7,49.4C85.1,49.4,74,38.3,74,24.7S85.1,0,98.7,0c13.6,0,24.7,11.1,24.7,24.7S112.3,49.4,98.7,49.4z"/>
<path class="st2" d="M101.5,21.9H96c-1.5,0-2.7-1.2-2.7-2.7s1.2-2.7,2.7-2.7h5.5c1.5,0,2.7,1.2,2.7,2.7h5.5c0-4.5-3.7-8.2-8.2-8.2
	V8.2H96V11c-4.5,0-8.2,3.7-8.2,8.2c0,4.5,3.7,8.2,8.2,8.2h5.5c1.5,0,2.7,1.2,2.7,2.7s-1.2,2.7-2.7,2.7H96c-1.5,0-2.7-1.2-2.7-2.7
	h-5.5c0,4.5,3.7,8.2,8.2,8.2v2.7h5.5v-2.7c4.5,0,8.2-3.7,8.2-8.2C109.7,25.6,106,21.9,101.5,21.9z"/>
<rect x="97" y="85" transform="matrix(0.832 -0.5547 0.5547 0.832 -30.7111 74.0572)" class="st0" width="19.8" height="5.5"/>
<path class="st0" d="M115.2,85h-2.7v-2.7c0-13.6,11.1-24.7,24.7-24.7h2.7v2.7C139.8,73.9,128.8,85,115.2,85z M134.1,63.3
	c-8.2,1.3-14.7,7.8-16,16C126.3,78,132.8,71.5,134.1,63.3z"/>
<rect x="87.7" y="64.1" transform="matrix(0.5547 -0.8321 0.8321 0.5547 -21.3061 108.2536)" class="st0" width="5.5" height="19.8"/>
<path class="st0" d="M85,71.3h-2.7c-13.6,0-24.7-11.1-24.7-24.7v-2.7h2.7C73.9,43.9,85,54.9,85,68.5V71.3z M63.3,49.6
	c1.3,8.2,7.8,14.7,16,16C78,57.4,71.5,50.9,63.3,49.6z"/>
<polygon class="st0" points="126.1,170 54.8,170 54.8,153.5 109.7,153.5 109.7,159 60.3,159 60.3,164.5 126.1,164.5 "/>
<rect x="65.8" y="156.3" class="st0" width="5.5" height="11"/>
<rect x="76.8" y="156.3" class="st0" width="5.5" height="11"/>
<rect x="87.7" y="156.3" class="st0" width="5.5" height="11"/>
<rect x="98.7" y="156.3" class="st0" width="5.5" height="11"/>
<polygon class="st0" points="109.7,159 60.3,159 60.3,142.6 104.2,142.6 104.2,148.1 65.8,148.1 65.8,153.5 109.7,153.5 "/>
<rect x="71.3" y="145.3" class="st0" width="5.5" height="11"/>
<rect x="82.3" y="145.3" class="st0" width="5.5" height="11"/>
<rect x="93.2" y="145.3" class="st0" width="5.5" height="11"/>
<polygon class="st0" points="104.2,148.1 57.6,148.1 57.6,131.6 101.5,131.6 101.5,137.1 63.1,137.1 63.1,142.6 104.2,142.6 "/>
<rect x="68.5" y="134.4" class="st0" width="5.5" height="11"/>
<rect x="79.5" y="134.4" class="st0" width="5.5" height="11"/>
<rect x="90.5" y="134.4" class="st0" width="5.5" height="11"/>
<polygon class="st0" points="101.5,137.1 52.1,137.1 52.1,120.6 104.2,120.6 104.2,126.1 57.6,126.1 57.6,131.6 101.5,131.6 "/>
<rect x="63.1" y="123.4" class="st0" width="5.5" height="11"/>
<rect x="74" y="123.4" class="st0" width="5.5" height="11"/>
<rect x="85" y="123.4" class="st0" width="5.5" height="11"/>
<rect x="96" y="123.4" class="st0" width="5.5" height="11"/>
<polygon class="st0" points="104.2,126.1 54.8,126.1 54.8,109.7 109.7,109.7 109.7,115.2 60.3,115.2 60.3,120.6 104.2,120.6 "/>
<rect x="65.8" y="112.4" class="st0" width="5.5" height="11"/>
<rect x="76.8" y="112.4" class="st0" width="5.5" height="11"/>
<rect x="87.7" y="112.4" class="st0" width="5.5" height="11"/>
<rect x="98.7" y="112.4" class="st0" width="5.5" height="11"/>
<path class="st1" d="M134.4,170c-19.7,0-35.6-16-35.6-35.6s16-35.6,35.6-35.6s35.6,16,35.6,35.6S154,170,134.4,170z"/>
<path class="st2" d="M153.5,126.1v-1.4c0-6.8-5.5-12.3-12.3-12.3h-4.1v-5.5h-5.5v5.5h-4.1c-6.8,0-12.3,5.5-12.3,12.3
	s5.5,12.3,12.3,12.3h13.7c3.8,0,6.9,3.1,6.9,6.9s-3.1,6.9-6.9,6.9h-13.7c-3.8,0-6.9-3.1-6.9-6.9v-1.4h-5.5v1.4
	c0,6.8,5.5,12.3,12.3,12.3h4.1v5.5h5.5v-5.5h4.1c6.8,0,12.3-5.5,12.3-12.3s-5.5-12.3-12.3-12.3h-13.7c-3.8,0-6.9-3.1-6.9-6.9
	c0-3.8,3.1-6.9,6.9-6.9h13.7c3.8,0,6.9,3.1,6.9,6.9v1.4H153.5z"/>
</svg>
