<?xml version="1.0" encoding="utf-8"?>
<!-- Generator: Adobe Illustrator 23.0.5, SVG Export Plug-In . SVG Version: 6.00 Build 0)  -->
<svg version="1.1" id="Layer_1" xmlns="http://www.w3.org/2000/svg" xmlns:xlink="http://www.w3.org/1999/xlink" x="0px" y="0px"
	 viewBox="0 0 760 197" style="enable-background:new 0 0 760 197;" xml:space="preserve">
<style type="text/css">
	.st0{fill:#FFFFFF;}
	.st1{fill:#ED2B7B;}
</style>
<g>
	<path class="st0" d="M98.5,184C51.4,184,13,145.6,13,98.5S51.4,13,98.5,13h563c47.1,0,85.5,38.4,85.5,85.5S708.6,184,661.5,184
		H98.5z"/>
	<path class="st1" d="M661.5,26c40,0,72.5,32.5,72.5,72.5c0,40-32.5,72.5-72.5,72.5h-563c-40,0-72.5-32.5-72.5-72.5
		C26,58.5,58.5,26,98.5,26H661.5 M661.5,0h-563C44.1,0,0,44.1,0,98.5v0C0,152.9,44.1,197,98.5,197h563c54.4,0,98.5-44.1,98.5-98.5v0
		C760,44.1,715.9,0,661.5,0L661.5,0z"/>
</g>
</svg>
