<?xml version="1.0" encoding="utf-8"?>
<!-- Generator: Adobe Illustrator 23.0.5, SVG Export Plug-In . SVG Version: 6.00 Build 0)  -->
<svg version="1.1" id="Layer_1" xmlns="http://www.w3.org/2000/svg" xmlns:xlink="http://www.w3.org/1999/xlink" x="0px" y="0px"
	 viewBox="0 0 69.7 58.6" style="enable-background:new 0 0 69.7 58.6;" xml:space="preserve">
<style type="text/css">
	.st0{fill:#2986CD;}
	.st1{fill:#FFFFFF;}
</style>
<path class="st0" d="M36.4,18.2l-0.7,0.5v0L29,23.9l0,0c-0.7,0.5-1.1,1.4-1.1,2.2c0,0.6,0.2,1.1,0.5,1.6c0.5,0.7,1.4,1.1,2.2,1.1
	c0.6,0,1.1-0.2,1.6-0.5l4.9-4c0.1-0.1,0.2-0.1,0.3-0.1l0.1,0l0.1,0l0.1,0l0.1,0.1l0,0l4.3,3.1c3-2.2,4.9-5.8,4.9-9.8
	c0-0.2,0-0.3,0-0.5c-1.2-0.7-2.7-1.2-4.4-1.2C40.9,15.9,38.8,16.5,36.4,18.2z"/>
<path class="st0" d="M41.1,28.1l-3.5-2.6L33,29.3l0,0c-0.2,0.1-0.4,0.3-0.6,0.4c0.8,0.2,1.6,0.2,2.4,0.2
	C37.1,29.9,39.2,29.2,41.1,28.1z"/>
<path class="st0" d="M34.2,16.2c0.3,0.2,0.4,0.6,0.2,0.9c-0.1,0.1-0.2,0.2-0.3,0.2c-0.2,0.1-0.4,0.1-0.6,0c-2-1.3-3.8-1.7-5.4-1.7
	c-2.3,0-4.2,0.9-5.6,2c0,0,0,0,0,0.1c0,3.7,1.6,7,4.2,9.3c0-0.3-0.1-0.5-0.1-0.8c0-1.2,0.6-2.4,1.6-3.2l0,0l6.2-4.9l0,0l0.3-0.3
	l0.2-0.2l0.1,0l0.5-0.4c2.5-1.8,4.9-2.5,7.1-2.5c1.6,0,3,0.4,4.2,1c-1-5.8-6-10.3-12.1-10.3c-6.2,0-11.3,4.6-12.2,10.6
	c1.5-0.9,3.3-1.7,5.5-1.7C30,14.3,32,14.8,34.2,16.2z"/>
<path class="st1" d="M34.9,3.7c0.4,0,0.7-0.3,0.7-0.7V0.7c0-0.4-0.3-0.7-0.7-0.7c-0.4,0-0.7,0.3-0.7,0.7V3
	C34.2,3.4,34.6,3.7,34.9,3.7z"/>
<path class="st1" d="M31.1,3.6c0.2,0.3,0.6,0.5,0.9,0.3c0.3-0.2,0.5-0.6,0.3-0.9l-1-1.9c-0.2-0.3-0.6-0.5-0.9-0.3
	c-0.3,0.2-0.5,0.6-0.3,0.9L31.1,3.6z"/>
<path class="st1" d="M28.6,5.4c0.3,0.2,0.7,0.2,1-0.1c0.2-0.3,0.2-0.7-0.1-1L27.8,3c-0.3-0.2-0.7-0.2-1,0.1c-0.2,0.3-0.2,0.7,0.1,1
	L28.6,5.4z"/>
<path class="st1" d="M41.1,5.4l1.6-1.4c0.3-0.2,0.3-0.7,0.1-1c-0.2-0.3-0.7-0.3-1-0.1l-1.6,1.4c-0.3,0.2-0.3,0.7-0.1,1
	C40.4,5.6,40.8,5.7,41.1,5.4z"/>
<path class="st1" d="M37.6,3.9c0.3,0.2,0.8,0,0.9-0.3l1-1.9c0.2-0.3,0-0.8-0.3-0.9c-0.3-0.2-0.8,0-0.9,0.3l-1,1.9
	C37.1,3.3,37.3,3.7,37.6,3.9z"/>
<path class="st1" d="M69.4,25.1l-12-15.7c-0.3-0.4-0.8-0.6-1.2-0.6c-0.3,0-0.7,0.1-0.9,0.3l-4.7,3.6l0.4,0.5l-0.4-0.5
	c-0.4,0.3-0.6,0.8-0.6,1.2c0,0.3,0.1,0.7,0.3,0.9l0.3,0.4l-1.8,1.3c-0.5-0.4-1.1-0.7-1.8-1c-1.2-0.6-2.6-1-4.2-1
	c-2.1,0-4.5,0.7-7.1,2.5l-0.5,0.4l-0.1,0l-0.2,0.2L34.5,18l0,0l-6.2,4.9l0,0c-1.1,0.8-1.6,2-1.6,3.2c0,0.3,0,0.5,0.1,0.8
	c0.1,0.6,0.3,1.1,0.7,1.6c0.8,1.1,2,1.6,3.2,1.6c0.6,0,1.2-0.1,1.8-0.4c0.2-0.1,0.4-0.2,0.6-0.4l0,0l4.6-3.7l3.5,2.6l16.6,12.1
	c0.9,0.7,1.4,1.7,1.4,2.6c0,0.5-0.1,1-0.5,1.5c-0.5,0.7-1.3,1-2.1,1c-0.5,0-1.1-0.1-1.6-0.4l-9.8-6.8c-0.3-0.2-0.7-0.1-0.9,0.2
	c-0.2,0.3-0.1,0.7,0.2,0.9l9.4,6.5l0,0c0.8,0.8,1.1,1.5,1.1,2.1c0,0.5-0.2,1-0.5,1.4c-0.5,0.8-1.3,1.2-2.2,1.2
	c-0.6,0-1.1-0.2-1.7-0.6l-1.9-1.4l0,0.1l-7.8-5.3c-0.3-0.2-0.7-0.1-0.9,0.2c-0.2,0.3-0.1,0.7,0.2,0.9l8.2,5.6c0.7,0.6,1,1.5,1,2.3
	c0,0.5-0.1,1-0.5,1.5c-0.5,0.7-1.3,1-2.2,1c-0.7,0-1.4-0.2-2-0.7l-3.8-2.7l-0.1,0.1l-4.6-3.3c-0.3-0.2-0.7-0.1-0.9,0.2
	c-0.2,0.3-0.1,0.7,0.2,0.9l5.2,3.7l0,0c0.5,0.6,0.8,1.4,0.8,2.1c0,0.6-0.2,1.2-0.5,1.6c-0.5,0.7-1.3,1-2.2,1c-0.7,0-1.4-0.2-2-0.7
	l-3.5-2.5c0.4-0.6,0.6-1.2,0.6-1.9c0-0.7-0.2-1.5-0.7-2.1c-0.7-1-1.8-1.6-3-1.6c-0.2,0-0.4,0-0.6,0.1l0-0.2c0-0.7-0.2-1.5-0.7-2.1
	c-0.7-1-1.8-1.6-2.8-1.6c0.1-0.3,0.2-0.6,0.2-1c0-0.7-0.2-1.5-0.7-2.1c-0.7-1-1.8-1.6-3-1.6c-0.2,0-0.5,0-0.7,0.1
	c0.1-0.3,0.1-0.5,0.1-0.8c0-0.7-0.2-1.5-0.7-2.1c-0.7-1-1.8-1.6-3-1.6c-0.6,0-1.2,0.2-1.8,0.6l-4,2.7c-0.3-0.4-0.6-0.8-0.8-1.2
	c-0.7-1.3-1-2.6-1-4c0-1,0.2-2,0.4-3l0.1-0.4l-2.6-1.9l9.9-12.9l3.3,2.4l0.4-0.3c0,0,0,0,0,0c1.4-1.1,3.3-2,5.6-2
	c1.6,0,3.4,0.5,5.4,1.7c0.2,0.1,0.4,0.1,0.6,0c0.1,0,0.2-0.1,0.3-0.2c0.2-0.3,0.1-0.7-0.2-0.9c-2.2-1.4-4.2-1.9-6.1-1.9
	c-2.2,0-4,0.7-5.5,1.7c-0.2,0.1-0.3,0.2-0.5,0.3l-2.6-1.8c0.1-0.2,0.2-0.5,0.2-0.8c0-0.5-0.2-0.9-0.6-1.2l-0.4,0.5l0.4-0.5l-4.7-3.6
	c-0.3-0.2-0.6-0.3-0.9-0.3c-0.5,0-0.9,0.2-1.2,0.6l-12,15.7C0.1,25,0,25.3,0,25.6c0,0.5,0.2,0.9,0.6,1.2l4.7,3.6
	c0.3,0.2,0.6,0.3,0.9,0.3c0.5,0,0.9-0.2,1.2-0.6l0.7-0.9l1.9,1.4c-0.2,1-0.4,1.9-0.4,2.9c0,1.6,0.4,3.1,1.1,4.5
	c0.3,0.5,0.6,1,0.9,1.4c-0.6,0.6-0.9,1.4-0.9,2.3c0,0.7,0.2,1.5,0.7,2.1c0.7,0.9,1.7,1.5,2.7,1.6c-0.3,0.5-0.5,1.1-0.5,1.7
	c0,0.7,0.2,1.5,0.7,2.1c0.7,1,1.8,1.6,3,1.6c0.4,0,0.8-0.1,1.1-0.2l0,0.2c0,0.7,0.2,1.5,0.7,2.1c0.7,1,1.8,1.6,3,1.6
	c0.6,0,1.2-0.2,1.8-0.6l0.3-0.2c0,0.7,0.2,1.5,0.7,2.1c0.7,1,1.8,1.6,3,1.6c0.6,0,1.2-0.2,1.8-0.6l0,0l2.8-2.1l3.7,2.7
	c0.8,0.6,1.8,0.9,2.7,0.9c1.2,0,2.4-0.5,3.2-1.6c0.5-0.7,0.7-1.5,0.7-2.4c0-0.3,0-0.5-0.1-0.8l1.3,0.9c0.8,0.6,1.8,0.9,2.7,0.9
	c1.2,0,2.4-0.5,3.2-1.6c0.5-0.7,0.7-1.4,0.7-2.2c0-0.3,0-0.6-0.1-0.8c0.6,0.3,1.2,0.4,1.8,0.4c1.3,0,2.4-0.6,3.2-1.7
	c0.4-0.6,0.7-1.3,0.7-2.1c0-0.4-0.1-0.8-0.3-1.2c0.2,0,0.4,0.1,0.7,0.1c1.2,0,2.4-0.5,3.2-1.6c0.5-0.7,0.7-1.4,0.7-2.2
	c0-1.4-0.7-2.7-1.9-3.6l-1.4-1L42.2,27.4l-4.3-3.1l0,0l-0.1-0.1l-0.1,0l-0.1,0l-0.1,0c-0.1,0-0.2,0.1-0.3,0.1l-4.9,4
	c-0.5,0.4-1,0.5-1.6,0.5c-0.8,0-1.7-0.4-2.2-1.1c-0.4-0.5-0.5-1-0.5-1.6c0-0.8,0.4-1.7,1.1-2.2l0,0l6.6-5.2v0l0.7-0.5
	c2.4-1.7,4.5-2.3,6.3-2.3c1.7,0,3.1,0.5,4.4,1.2c0.5,0.3,0.9,0.5,1.3,0.8l0.4,0.3l2.6-1.9l9.9,12.9l-1.9,1.3l0.1,0.4
	c0.1,0.3,0.1,0.6,0.1,1c0,1.3-0.5,3.1-1.5,4.8c-0.1,0.2-0.1,0.5,0.1,0.7l0.2,0.1c0.3,0.2,0.7,0.1,0.9-0.2c1.1-1.9,1.7-3.8,1.7-5.4
	c0-0.3,0-0.6-0.1-0.9l1.2-0.9l0.3,0.3c0.3,0.4,0.8,0.6,1.2,0.6c0.3,0,0.7-0.1,0.9-0.3l4.7-3.6c0.4-0.3,0.6-0.8,0.6-1.2
	C69.7,25.7,69.6,25.3,69.4,25.1z M6.5,29.4l-0.2,0.1l-0.2-0.1l-4.7-3.6l-0.1-0.2l0.1-0.2l12-15.7l0.2-0.1l0.2,0.1l4.7,3.6v0l0.1,0.2
	l-0.1,0.2L6.5,29.4z M12.5,43.3c-0.3-0.4-0.4-0.9-0.4-1.4c0-0.7,0.3-1.3,0.8-1.7l4.5-3.1c0.3-0.2,0.7-0.3,1.1-0.3
	c0.7,0,1.4,0.4,1.9,1.1c0.3,0.4,0.4,0.9,0.4,1.4c0,0.7-0.3,1.3-0.8,1.7L15.5,44c-0.3,0.2-0.7,0.3-1.1,0.3C13.8,44.3,13,44,12.5,43.3
	z M18.4,49.4c-0.3,0.2-0.7,0.3-1.1,0.3c-0.7,0-1.4-0.4-1.9-1.1c-0.3-0.4-0.4-0.9-0.4-1.4c0-0.7,0.3-1.3,0.8-1.7l5.9-4.1
	c0.3-0.2,0.7-0.3,1.1-0.3c0.7,0,1.4,0.4,1.9,1.1c0.3,0.4,0.4,0.9,0.4,1.4c0,0.7-0.3,1.3-0.8,1.7L18.4,49.4z M24.8,52l-1.7,1.1
	c-0.3,0.2-0.7,0.3-1.1,0.3c-0.7,0-1.4-0.4-1.9-1.1c-0.3-0.4-0.4-0.9-0.4-1.4c0-0.5,0.2-0.9,0.4-1.3l4.9-3.4c0.1-0.1,0.2-0.2,0.3-0.2
	c0.3-0.1,0.5-0.2,0.8-0.2c0.7,0,1.4,0.4,1.9,1.1c0.3,0.4,0.4,0.9,0.4,1.4c0,0.3-0.1,0.6-0.2,0.9l-2.8,2.1l0,0
	C25.2,51.5,25,51.7,24.8,52z M31.8,53.9L31.8,53.9l-3,2.2c-0.3,0.2-0.7,0.3-1.1,0.3c-0.7,0-1.4-0.4-1.9-1.1
	c-0.3-0.4-0.4-0.9-0.4-1.4c0-0.7,0.3-1.3,0.8-1.7l0,0l3-2.2c0.3-0.2,0.7-0.3,1.1-0.3c0.7,0,1.4,0.4,1.9,1.1c0.3,0.4,0.4,0.9,0.4,1.4
	C32.7,52.9,32.4,53.5,31.8,53.9z M68.3,26.2l-4.7,3.6l-0.2,0.1l-0.2-0.1l-12-15.7L51.1,14l0.1-0.2v0l4.7-3.6l0.2-0.1l0.2,0.1
	l12,15.7l0.1,0.2L68.3,26.2z"/>
<path class="st1" d="M6.2,23.8c-1,0-1.7,0.8-1.7,1.7c0,0.9,0.8,1.7,1.7,1.7c0.9,0,1.7-0.8,1.7-1.7C7.9,24.6,7.1,23.8,6.2,23.8z
	 M6.2,26.3c-0.5,0-0.8-0.4-0.8-0.8c0-0.5,0.4-0.8,0.8-0.8c0.5,0,0.8,0.4,0.8,0.8C7,26,6.6,26.3,6.2,26.3z"/>
<path class="st1" d="M64.1,24.7c-1,0-1.7,0.8-1.7,1.7c0,1,0.8,1.7,1.7,1.7c0.9,0,1.7-0.8,1.7-1.7C65.8,25.5,65,24.7,64.1,24.7z
	 M64.1,27.2c-0.5,0-0.8-0.4-0.8-0.8c0-0.5,0.4-0.8,0.8-0.8c0.5,0,0.8,0.4,0.8,0.8C64.9,26.9,64.5,27.2,64.1,27.2z"/>
</svg>
