<?xml version="1.0" encoding="utf-8"?>
<!-- Generator: Adobe Illustrator 23.0.5, SVG Export Plug-In . SVG Version: 6.00 Build 0)  -->
<svg version="1.1" id="Layer_1" xmlns="http://www.w3.org/2000/svg" xmlns:xlink="http://www.w3.org/1999/xlink" x="0px" y="0px"
	 viewBox="0 0 40.5 29.5" style="enable-background:new 0 0 40.5 29.5;" xml:space="preserve">
<style type="text/css">
	.st0{fill:#ffffff;}
</style>
<g>
	<path class="st0" d="M20.2,27.8c-0.2,0.3-0.6,0.5-1,0.7c-0.4,0.2-0.8,0.3-1.2,0.3c-0.2,0-0.5,0-0.8,0c-0.3,0-0.6,0-0.8-0.1
		c-0.3,0-0.5-0.1-0.8-0.1c-0.2-0.1-0.4-0.1-0.5-0.1c-0.1,0-0.2-0.1-0.2-0.1c0,0,0-0.1,0-0.2l0.1-1.4c0-0.1,0-0.2,0.1-0.2
		c0,0,0.1,0,0.2,0c0.2,0.1,0.4,0.1,0.6,0.2c0.2,0.1,0.5,0.1,0.7,0.1s0.5,0.1,0.7,0.1c0.2,0,0.4,0,0.6-0.1c0.4-0.1,0.7-0.3,0.9-0.5
		c0.2-0.2,0.3-0.5,0.3-0.9c0-0.1,0-0.2-0.1-0.3c0-0.1-0.1-0.2-0.2-0.4c-0.1-0.1-0.2-0.3-0.4-0.4c-0.2-0.2-0.4-0.3-0.7-0.5
		c-0.5-0.3-1-0.6-1.3-0.9c-0.4-0.3-0.7-0.5-0.9-0.8c-0.2-0.3-0.4-0.5-0.5-0.8c-0.1-0.3-0.2-0.6-0.2-0.9c0-0.4,0.1-0.8,0.3-1.2
		c0.2-0.4,0.4-0.7,0.7-1s0.7-0.5,1.1-0.6c0.4-0.2,0.9-0.2,1.3-0.2s0.9,0,1.2,0.1c0.3,0.1,0.6,0.2,0.9,0.3c0.1,0.1,0.2,0.1,0.2,0.1
		s0,0.1,0,0.2l-0.3,1.2c0,0.1-0.1,0.1-0.1,0.2c0,0-0.1,0-0.3,0c-0.4-0.1-0.9-0.2-1.2-0.3c-0.4,0-0.7,0-1,0.1s-0.5,0.2-0.6,0.4
		c-0.2,0.2-0.2,0.5-0.2,0.8c0,0.2,0.1,0.5,0.3,0.7c0.2,0.2,0.5,0.5,1,0.8c0.6,0.4,1.1,0.7,1.4,1c0.4,0.3,0.7,0.6,0.9,0.8
		c0.2,0.3,0.4,0.5,0.5,0.8c0.1,0.3,0.1,0.6,0.1,0.9c0,0.5-0.1,0.9-0.2,1.2S20.5,27.5,20.2,27.8z"/>
	<path class="st0" d="M31.4,28.6c-0.1,0-0.2,0-0.2,0c0,0,0-0.1,0-0.2v-7.1l-2.8,7.1c0,0.1-0.1,0.2-0.1,0.2s-0.1,0-0.2,0h-1.2
		c-0.1,0-0.2,0-0.2,0s-0.1-0.1-0.1-0.2l-2.8-7.1v7.1c0,0.1,0,0.2,0,0.2c0,0-0.1,0-0.2,0H22c-0.1,0-0.2,0-0.2,0c0,0,0-0.1,0-0.2V18.1
		c0-0.2,0-0.3,0.1-0.4c0,0,0.2-0.1,0.3-0.1h1.6c0.1,0,0.2,0,0.2,0c0,0,0.1,0.1,0.1,0.2l3.3,8.2l3.3-8.2c0.1-0.2,0.2-0.2,0.4-0.2h1.5
		c0.2,0,0.3,0,0.4,0.1c0,0,0.1,0.2,0.1,0.4v10.2c0,0.1,0,0.2,0,0.2c0,0-0.1,0-0.2,0H31.4z"/>
	<path class="st0" d="M39.4,27.8c-0.2,0.3-0.6,0.5-1,0.7c-0.4,0.2-0.8,0.3-1.2,0.3c-0.2,0-0.5,0-0.8,0c-0.3,0-0.6,0-0.8-0.1
		c-0.3,0-0.5-0.1-0.8-0.1c-0.2-0.1-0.4-0.1-0.5-0.1c-0.1,0-0.2-0.1-0.2-0.1c0,0,0-0.1,0-0.2l0.1-1.4c0-0.1,0-0.2,0.1-0.2
		c0,0,0.1,0,0.2,0c0.2,0.1,0.4,0.1,0.6,0.2c0.2,0.1,0.5,0.1,0.7,0.1s0.5,0.1,0.7,0.1c0.2,0,0.4,0,0.6-0.1c0.4-0.1,0.7-0.3,0.9-0.5
		c0.2-0.2,0.3-0.5,0.3-0.9c0-0.1,0-0.2-0.1-0.3c0-0.1-0.1-0.2-0.2-0.4c-0.1-0.1-0.2-0.3-0.4-0.4c-0.2-0.2-0.4-0.3-0.7-0.5
		c-0.5-0.3-1-0.6-1.3-0.9c-0.4-0.3-0.7-0.5-0.9-0.8c-0.2-0.3-0.4-0.5-0.5-0.8c-0.1-0.3-0.2-0.6-0.2-0.9c0-0.4,0.1-0.8,0.3-1.2
		c0.2-0.4,0.4-0.7,0.7-1s0.7-0.5,1.1-0.6c0.4-0.2,0.9-0.2,1.3-0.2s0.9,0,1.2,0.1c0.3,0.1,0.6,0.2,0.9,0.3c0.1,0.1,0.2,0.1,0.2,0.1
		s0,0.1,0,0.2l-0.3,1.2c0,0.1-0.1,0.1-0.1,0.2c0,0-0.1,0-0.3,0c-0.4-0.1-0.9-0.2-1.2-0.3c-0.4,0-0.7,0-1,0.1s-0.5,0.2-0.6,0.4
		c-0.2,0.2-0.2,0.5-0.2,0.8c0,0.2,0.1,0.5,0.3,0.7c0.2,0.2,0.5,0.5,1,0.8c0.6,0.4,1.1,0.7,1.4,1c0.4,0.3,0.7,0.6,0.9,0.8
		c0.2,0.3,0.4,0.5,0.5,0.8c0.1,0.3,0.1,0.6,0.1,0.9c0,0.5-0.1,0.9-0.2,1.2S39.7,27.5,39.4,27.8z"/>
</g>
<g>
	<polygon class="st0" points="1.2,4.8 1.2,27.2 15.5,13 	"/>
	<path class="st0" d="M39.3,2.9c-0.2-1-1.1-1.8-2.2-1.8H3.5c-1.1,0-2,0.8-2.3,1.8l19,10.9L39.3,2.9z"/>
	<path class="st0" d="M13.9,18.7c0.5-2,4-2.1,4-2.1h8.4l-2.8-2.8l-3.3,1.8L17,13.9L2.4,28.4h11.5C13.8,26.5,13.5,20.5,13.9,18.7z"/>
	<polygon class="st0" points="39.4,4.8 25.1,13 28.7,16.7 39.4,16.7 	"/>
</g>
</svg>
