<?xml version="1.0" encoding="utf-8"?>
<!-- Generator: Adobe Illustrator 23.0.5, SVG Export Plug-In . SVG Version: 6.00 Build 0)  -->
<svg version="1.1" id="Layer_1" xmlns="http://www.w3.org/2000/svg" xmlns:xlink="http://www.w3.org/1999/xlink" x="0px" y="0px"
	 viewBox="0 0 56.5 62.9" style="enable-background:new 0 0 56.5 62.9;" xml:space="preserve">
<style type="text/css">
	.st0{fill:#999999;}
	.st1{fill:#FFFFFF;}
</style>
<rect x="33.4" y="2.4" transform="matrix(0.5547 -0.8321 0.8321 0.5547 11.4838 33.4577)" class="st0" width="7.2" height="7.2"/>
<path class="st1" d="M48.7,61.9l-11.3-6.4c-5.8-3.3-13-3.3-18.8,0L7.3,61.9l-1-1.7l11.3-6.4c6.4-3.6,14.3-3.6,20.7,0l11.3,6.4
	L48.7,61.9z"/>
<path class="st1" d="M28,20c-3.3,0-6-2.7-6-6s2.7-6,6-6c3.3,0,6,2.7,6,6S31.3,20,28,20z M28,10c-2.2,0-4,1.8-4,4s1.8,4,4,4
	c2.2,0,4-1.8,4-4S30.2,10,28,10z"/>
<path class="st1" d="M32.7,52c-0.2,0-0.3,0-0.5,0c-1.3-0.2-2.3-1.3-2.5-2.6L28.1,37h-0.2l-1.7,12.4c-0.1,0.9-0.6,1.6-1.3,2.1
	c-0.7,0.5-1.6,0.6-2.5,0.4c-1.4-0.4-2.3-1.8-2.1-3.3L22,35.9v-4.4L21.4,32c-0.7,0.6-1.6,1-2.6,1c-2.1,0-3.8-1.7-3.8-3.8V21
	c0-0.9,0.4-1.7,1.1-2.3c0.7-0.6,1.6-0.8,2.4-0.7c1.4,0.2,2.5,1.6,2.5,3.1v3.2c1.3-1.2,3-2.7,3.1-2.8l0.3-0.3
	c1.1-0.8,2.3-1.2,3.6-1.2c1.5,0,2.9,0.5,4,1.5l5.9-2l0.9-6C39,12,40.2,11,41.7,11c0.9,0,1.7,0.4,2.3,1.1c0.6,0.7,0.8,1.6,0.6,2.4
	l-1.4,7.7c-0.2,1-0.9,1.8-1.8,2.1L34,26.9v9l1.7,12.7c0.1,0.9-0.2,1.9-0.9,2.5C34.3,51.7,33.5,52,32.7,52z M26.1,35h3.8l1.9,14.1
	c0.1,0.5,0.4,0.9,0.8,0.9c0.4,0.1,0.7-0.1,0.9-0.3c0.2-0.2,0.3-0.5,0.3-0.8L32,36V25.5l8.7-3.1c0.3-0.1,0.4-0.3,0.5-0.6h0l1.4-7.7
	c0.1-0.4-0.1-0.6-0.2-0.8c-0.1-0.1-0.3-0.3-0.7-0.3c-0.5,0-0.9,0.3-0.9,0.8L39.6,21l-8.2,2.8L31,23.3c-1.4-1.5-3.7-1.8-5.3-0.5
	L25.4,23c-0.1,0.1-4.7,4.3-4.7,4.3L19,28.8v-7.7c0-0.5-0.4-1-0.8-1.1c-0.3-0.1-0.6,0-0.8,0.2C17.1,20.4,17,20.7,17,21v8.2
	c0,1,0.8,1.8,1.8,1.8c0.5,0,0.9-0.2,1.2-0.5L24,27l0,9.1l-1.7,12.7c-0.1,0.5,0.2,1,0.7,1.1c0.3,0.1,0.6,0,0.8-0.1
	c0.2-0.2,0.4-0.4,0.4-0.7L26.1,35z"/>
<rect x="42" y="1" transform="matrix(0.5369 -0.8437 0.8437 0.5369 8.103 42.7612)" class="st1" width="2" height="26.1"/>
<rect x="48" y="30" class="st1" width="6" height="2"/>
<rect x="50" y="28" class="st1" width="2" height="6"/>
<rect x="41" y="35" class="st1" width="4" height="2"/>
<rect x="42" y="34" class="st1" width="2" height="4"/>
<rect x="46" y="39" class="st1" width="6" height="2"/>
<rect x="48" y="37" class="st1" width="2" height="6"/>
<rect x="11" y="6" class="st1" width="6" height="2"/>
<rect x="13" y="4" class="st1" width="2" height="6"/>
<rect x="2" y="4" class="st1" width="4" height="2"/>
<rect x="3" y="3" class="st1" width="2" height="4"/>
<rect x="4" y="12" class="st1" width="6" height="2"/>
<rect x="6" y="10" class="st1" width="2" height="6"/>
</svg>
