<?xml version="1.0" encoding="utf-8"?>
<!-- Generator: Adobe Illustrator 23.0.5, SVG Export Plug-In . SVG Version: 6.00 Build 0)  -->
<svg version="1.1" id="Layer_1" xmlns="http://www.w3.org/2000/svg" xmlns:xlink="http://www.w3.org/1999/xlink" x="0px" y="0px"
	 viewBox="0 0 15 15.3" style="enable-background:new 0 0 15 15.3;" xml:space="preserve">
<style type="text/css">
	.st0{fill:#FFFFFF;}
</style>
<g>
	<path class="st0" d="M14.7,9.4l-1.6-0.9c0-0.3,0.1-0.6,0.1-0.9c0-0.3,0-0.6-0.1-0.9l1.5-0.9c0.3-0.1,0.3-0.5,0.2-0.7l-1.5-2.6
		c-0.1-0.3-0.5-0.3-0.7-0.2l-1.5,0.9c-0.5-0.4-1-0.7-1.6-0.9V0.5C9.5,0.2,9.3,0,9,0h-3C5.6,0,5.4,0.2,5.4,0.5v1.8
		C4.8,2.5,4.3,2.8,3.8,3.2L2.3,2.4C2.1,2.2,1.7,2.3,1.6,2.5L0.1,5.2C-0.1,5.4,0,5.8,0.3,5.9l1.5,0.9c0,0.3-0.1,0.6-0.1,0.9
		c0,0.3,0,0.6,0.1,1L0.3,9.5C0,9.6,0,10,0.1,10.2l1.5,2.6c0.1,0.3,0.5,0.3,0.7,0.2l1.5-0.9c0.5,0.4,1,0.7,1.6,0.9v1.7
		c0,0.3,0.2,0.5,0.5,0.5h3c0.3,0,0.5-0.2,0.5-0.5V13c0.6-0.2,1.1-0.5,1.6-0.9l1.5,0.9c0.3,0.1,0.6,0.1,0.7-0.2l1.5-2.6
		C15,9.9,15,9.6,14.7,9.4z M7.5,9.9c-1.2,0-2.2-1-2.2-2.2c0-1.2,1-2.2,2.2-2.2s2.2,1,2.2,2.2C9.7,8.9,8.7,9.9,7.5,9.9z"/>
</g>
</svg>
