<?xml version="1.0" encoding="utf-8"?>
<!-- Generator: Adobe Illustrator 23.0.5, SVG Export Plug-In . SVG Version: 6.00 Build 0)  -->
<svg version="1.1" id="Layer_1" xmlns="http://www.w3.org/2000/svg" xmlns:xlink="http://www.w3.org/1999/xlink" x="0px" y="0px"
	 viewBox="0 0 34.3 37.1" style="enable-background:new 0 0 34.3 37.1;" xml:space="preserve">
<style type="text/css">
	.st0{fill:#FFFFFF;}
</style>
<g>
	<g>
		<path class="st0" d="M32.8,37.1H1.7c-0.8,0-1.5-0.7-1.5-1.5L0,18.2c0-0.4,0.1-0.8,0.4-1l15-16.3c1-1.1,2.7-1.1,3.6,0l15,16.3
			c0.3,0.3,0.4,0.7,0.4,1l0,2.1l0,15.3C34.3,36.4,33.6,37.1,32.8,37.1z M3.2,34.1h28.1l0-15.4L17.2,3.2L3,18.7L3.2,34.1z"/>
	</g>
</g>
<path class="st0" d="M17.2,37.1c-0.8,0-1.5-0.7-1.5-1.5V24.8c0-0.8,0.7-1.5,1.5-1.5s1.5,0.7,1.5,1.5v10.9
	C18.7,36.4,18,37.1,17.2,37.1z"/>
</svg>
