<?xml version="1.0" encoding="utf-8"?>
<!-- Generator: Adobe Illustrator 23.0.5, SVG Export Plug-In . SVG Version: 6.00 Build 0)  -->
<svg version="1.1" id="Layer_1" xmlns="http://www.w3.org/2000/svg" xmlns:xlink="http://www.w3.org/1999/xlink" x="0px" y="0px"
	 viewBox="0 0 27.5 27.4" style="enable-background:new 0 0 27.5 27.4;" xml:space="preserve">
<style type="text/css">
	.st0{fill:#4D4D4D;}
</style>
<path class="st0" d="M26.5,14.7h-3.6c-0.6,0-1,0.4-1,1s0.4,1,1,1h2.6v3.7h-7.6h-8H2v-3.7h2.9c0.6,0,1-0.4,1-1V10c0-4.4,3.6-8,8-8
	c4.4,0,8,3.6,8,8v2.7c0,0.6,0.4,1,1,1s1-0.4,1-1V10c0-5.5-4.5-10-10-10c-5.5,0-10,4.5-10,10v4.7H1c-0.6,0-1,0.4-1,1v5.7
	c0,0.6,0.4,1,1,1h7.9c0.1,2.7,2.3,4.9,5.1,4.9c2.7,0,5-2.2,5.1-4.9h7.5c0.6,0,1-0.4,1-1v-5.7C27.5,15.2,27.1,14.7,26.5,14.7z
	 M13.9,25.4c-1.6,0-3-1.3-3.1-2.9H17C16.9,24.1,15.6,25.4,13.9,25.4z"/>
</svg>
