<?xml version="1.0" encoding="utf-8"?>
<!-- Generator: Adobe Illustrator 23.0.5, SVG Export Plug-In . SVG Version: 6.00 Build 0)  -->
<svg version="1.1" id="Layer_1" xmlns="http://www.w3.org/2000/svg" xmlns:xlink="http://www.w3.org/1999/xlink" x="0px" y="0px"
	 viewBox="0 0 17.9 17" style="enable-background:new 0 0 17.9 17;" xml:space="preserve">
<style type="text/css">
	.st0{fill:#4D4D4D;}
</style>
<path class="st0" d="M17.1,4.4H0.8C0.3,4.4,0,4.1,0,3.7V0.8C0,0.3,0.3,0,0.8,0h16.4c0.4,0,0.8,0.3,0.8,0.8v2.9
	C17.9,4.1,17.6,4.4,17.1,4.4z M1.5,2.9h14.9V1.5H1.5V2.9z"/>
<path class="st0" d="M17.1,10.7H0.8C0.3,10.7,0,10.4,0,9.9V7c0-0.4,0.3-0.8,0.8-0.8h16.4c0.4,0,0.8,0.3,0.8,0.8v2.9
	C17.9,10.4,17.6,10.7,17.1,10.7z M1.5,9.2h14.9V7.7H1.5V9.2z"/>
<path class="st0" d="M17.1,17H0.8C0.3,17,0,16.6,0,16.2v-2.9c0-0.4,0.3-0.8,0.8-0.8h16.4c0.4,0,0.8,0.3,0.8,0.8v2.9
	C17.9,16.6,17.6,17,17.1,17z M1.5,15.5h14.9V14H1.5V15.5z"/>
</svg>
