<?xml version="1.0" encoding="utf-8"?>
<!-- Generator: Adobe Illustrator 23.0.5, SVG Export Plug-In . SVG Version: 6.00 Build 0)  -->
<svg version="1.1" id="Layer_1" xmlns="http://www.w3.org/2000/svg" xmlns:xlink="http://www.w3.org/1999/xlink" x="0px" y="0px"
	 viewBox="0 0 32.8 33.3" style="enable-background:new 0 0 32.8 33.3;" xml:space="preserve">
<style type="text/css">
	.st0{fill:#4D4D4D;}
</style>
<path class="st0" d="M32.4,30.8l-6.7-7.2c2.1-2.6,3.3-5.8,3.3-9.2c0-3.9-1.5-7.5-4.3-10.2C21.9,1.5,18.2,0,14.4,0
	C10.6,0,6.9,1.5,4.2,4.3C1.5,7,0,10.6,0,14.5S1.5,22,4.3,24.7c2.7,2.7,6.4,4.2,10.2,4.2c0.6,0,1.1,0,1.7-0.1
	c0.8-0.1,1.4-0.8,1.3-1.7c-0.1-0.8-0.8-1.4-1.7-1.3c-3.5,0.4-6.9-0.8-9.4-3.3c-2.2-2.2-3.4-5-3.4-8.1s1.2-5.9,3.3-8.1
	c2.2-2.2,5-3.4,8.1-3.4c0,0,0,0,0,0c3.1,0,5.9,1.2,8.1,3.3c2.2,2.2,3.4,5,3.4,8.1s-1.2,5.9-3.3,8.1c-0.6,0.6-0.6,1.5,0,2.1
	c0,0,0.2,0.3,0.3,0.3l7.3,7.8c0.3,0.3,0.7,0.5,1.1,0.5c0.4,0,0.7-0.1,1-0.4C32.9,32.4,33,31.4,32.4,30.8z"/>
</svg>
