<?xml version="1.0" encoding="utf-8"?>
<!-- Generator: Adobe Illustrator 23.0.5, SVG Export Plug-In . SVG Version: 6.00 Build 0)  -->
<svg version="1.1" id="Layer_1" xmlns="http://www.w3.org/2000/svg" xmlns:xlink="http://www.w3.org/1999/xlink" x="0px" y="0px"
	 viewBox="0 0 97.4 70.3" style="enable-background:new 0 0 97.4 70.3;" xml:space="preserve">
<style type="text/css">
	.st0{opacity:0.26;fill:#FFFFFF;}
	.st1{fill:#FFFFFF;}
</style>
<path class="st0" d="M37,23.7c0,2.7-2.2,4.9-4.9,4.9c-2.7,0-4.9-2.2-4.9-4.9c0-2.7,2.2-4.9,4.9-4.9C34.8,18.9,37,21.1,37,23.7z"/>
<path class="st0" d="M51,23.7c0,2.7-2.2,4.9-4.9,4.9c-2.7,0-4.9-2.2-4.9-4.9c0-2.7,2.2-4.9,4.9-4.9C48.8,18.9,51,21.1,51,23.7z"/>
<path class="st0" d="M65,23.7c0,2.7-2.2,4.9-4.9,4.9c-2.7,0-4.9-2.2-4.9-4.9c0-2.7,2.2-4.9,4.9-4.9C62.8,18.9,65,21.1,65,23.7z"/>
<path class="st1" d="M60.1,30.6c3.7,0,6.7-3,6.7-6.7c0-3.7-3-6.7-6.7-6.7c-3.7,0-6.7,3-6.7,6.7C53.4,27.6,56.4,30.6,60.1,30.6z
	 M60.1,20.3c2,0,3.7,1.6,3.7,3.7c0,2-1.6,3.7-3.7,3.7c-2,0-3.7-1.6-3.7-3.7C56.4,21.9,58,20.3,60.1,20.3z M50.1,50.5h3l0-8.8h-3
	V50.5z M10.8,55.8c0-0.2,0-0.3,0-0.4v-45c0-4.1,3.3-7.4,7.4-7.4h54.6c4.1,0,7.4,3.3,7.4,7.4v0.9h3v-0.9C83.2,4.7,78.6,0,72.8,0H18.2
	C12.5,0,7.8,4.7,7.8,10.4v45c0,0.2,0,0.4,0,0.5L10.8,55.8z M40.9,50.5v-8.8h-3v8.8H40.9z M52.2,24c0-3.7-3-6.7-6.7-6.7
	c-3.7,0-6.7,3-6.7,6.7c0,3.7,3,6.7,6.7,6.7C49.2,30.6,52.2,27.6,52.2,24z M41.8,24c0-2,1.6-3.7,3.7-3.7c2,0,3.7,1.6,3.7,3.7
	c0,2-1.6,3.7-3.7,3.7C43.5,27.6,41.9,26,41.8,24z M80.2,55.8l3,0.2v0c0-0.1,0-0.3,0-0.5l0-24h-3l0,24C80.3,55.4,80.2,55.6,80.2,55.8
	z M32.1,36.3l0,14.2h3V36.3c0-1,0.8-1.9,1.9-1.9h17.1c1,0,1.9,0.8,1.9,1.9l0,14.2h3V36.3c0-2.7-2.2-4.9-4.9-4.9H37
	C34.3,31.5,32.1,33.6,32.1,36.3z M64.6,41.7v8.8h3l0-8.8H64.6z M73.5,43.4v-7.1c0-1.3-0.5-2.6-1.4-3.5c-0.9-0.9-2.1-1.4-3.5-1.4
	l-8.6,0v3h8.6c0.5,0,1,0.2,1.3,0.6c0.3,0.3,0.5,0.8,0.5,1.3l0,7.1v7.1h3L73.5,43.4z M88.1,59.9c0,4.1-3.3,7.4-7.4,7.4H10.4
	C6.3,67.3,3,64,3,59.9v-4H0v4c0,5.8,4.7,10.4,10.4,10.4h70.2c5.8,0,10.4-4.7,10.4-10.4v-4h-3L88.1,59.9z M19,32.9
	c-0.9,0.9-1.4,2.1-1.4,3.5l0,7.1v7.1h3V36.3c0-0.5,0.2-1,0.5-1.3c0.3-0.3,0.8-0.5,1.3-0.6l8.6,0v-3h-8.6C21.1,31.5,19.9,32,19,32.9z
	 M31,17.3c-3.7,0-6.7,3-6.7,6.7c0,3.7,3,6.7,6.7,6.7c3.7,0,6.7-3,6.7-6.7C37.7,20.3,34.7,17.3,31,17.3z M31,27.6
	c-2,0-3.7-1.6-3.7-3.7c0-2,1.6-3.7,3.7-3.7c2,0,3.7,1.6,3.7,3.7C34.7,26,33,27.6,31,27.6z M72.8,58.3H18.2v3h54.6V58.3z M23.4,50.5
	h3l0-8.8h-3V50.5z M95.7,17.9H72.8v3h22.9V17.9z M88.1,8.6v3h9.3v-3H88.1z M88.1,38.7h8.5v-3h-8.5V38.7z"/>
</svg>
