<?xml version="1.0" encoding="utf-8"?>
<!-- Generator: Adobe Illustrator 23.0.5, SVG Export Plug-In . SVG Version: 6.00 Build 0)  -->
<svg version="1.1" id="Layer_1" xmlns="http://www.w3.org/2000/svg" xmlns:xlink="http://www.w3.org/1999/xlink" x="0px" y="0px"
	 viewBox="0 0 14.3 15.4" style="enable-background:new 0 0 14.3 15.4;" xml:space="preserve">
<style type="text/css">
	.st0{fill:#FFFFFF;}
</style>
<path class="st0" d="M13.6,6.9L8.1,0.9c-0.5-0.6-1.5-0.6-2,0L0.7,6.9C0.5,7.1,0.4,7.3,0.4,7.6l0.1,6.3c0,0.5,0.5,1,1,1h11.3
	c0.6,0,1-0.4,1-1V8.3l0-0.8C13.8,7.3,13.7,7.1,13.6,6.9z M11.8,12.9H8.1V9.9c0-0.6-0.4-1-1-1s-1,0.4-1,1v2.9H2.5l-0.1-5l4.7-5.1
	l4.7,5.1L11.8,12.9z"/>
</svg>
